<svg xmlns="http://www.w3.org/2000/svg" xmlns:xlink="http://www.w3.org/1999/xlink" class="main-svg"  width="315" height="290" viewBox="55 85 370 365">
<defs>
	<pattern id="pattern0" patternUnits="userSpaceOnUse" width="10" height="10">
		<rect x="0" y="0" width="10" height="10" style="fill: rgb(148, 103, 190)"/>
        <line x1="4" x2="4" y1="0" y2="10" style="stroke: white;stroke-width:2"/>
	</pattern>
	<pattern id="pattern1" patternUnits="userSpaceOnUse" width="10" height="10">
		<rect x="0" y="0" width="10" height="10" style="fill: rgb(255, 127, 15)"/>
        <line x1="4" x2="4" y1="0" y2="10" style="stroke: white;stroke-width:2"/>
	</pattern>
	<pattern id="pattern2" patternUnits="userSpaceOnUse" width="10" height="10">
		<rect x="0" y="0" width="10" height="10" style="fill: rgb(31, 119, 181)"/>
        <line x1="4" x2="4" y1="0" y2="10" style="stroke: white;stroke-width:2"/>
	</pattern>
	<pattern id="pattern3" patternUnits="userSpaceOnUse" width="10" height="10">
		<rect x="0" y="0" width="10" height="10" style="fill: rgb(214, 39, 41)"/>
        <line x1="4" x2="4" y1="0" y2="10" style="stroke: white;stroke-width:2"/>
	</pattern>
	<pattern id="pattern4" patternUnits="userSpaceOnUse" width="10" height="10">
		<rect x="0" y="0" width="10" height="10" style="fill: rgb(44, 160, 45)"/>
        <line x1="4" x2="4" y1="0" y2="10" style="stroke: white;stroke-width:2"/>
	</pattern></defs><rect x="0" y="0" width="500" height="500" style="fill: rgb(255, 255, 255); fill-opacity: 1;"/><defs id="defs-6baf0f"><g class="clips"><clipPath id="clip6baf0fxyplot" class="plotclip"><rect width="340" height="320"/></clipPath><clipPath class="axesclip" id="clip6baf0fx"><rect x="80" y="0" width="340" height="500"/></clipPath><clipPath class="axesclip" id="clip6baf0fy"><rect x="0" y="100" width="500" height="320"/></clipPath><clipPath class="axesclip" id="clip6baf0fxy"><rect x="80" y="100" width="340" height="320"/></clipPath></g><g class="gradients"/></defs><g class="bglayer"><rect class="bg" x="80" y="100" width="340" height="320" style="fill: rgb(229, 236, 246); fill-opacity: 1; stroke-width: 0;"/></g><g class="layer-below"><g class="imagelayer"/><g class="shapelayer"/></g><g class="cartesianlayer"><g class="subplot xy"><g class="layer-subplot"><g class="shapelayer"/><g class="imagelayer"/></g><g class="gridlayer"><g class="x"><path class="xgrid crisp" transform="translate(158.45999999999998,0)" d="M0,100v320" style="stroke: rgb(255, 255, 255); stroke-opacity: 1; stroke-width: 1px;"/><path class="xgrid crisp" transform="translate(289.23,0)" d="M0,100v320" style="stroke: rgb(255, 255, 255); stroke-opacity: 1; stroke-width: 1px;"/></g><g class="y"><path class="ygrid crisp" transform="translate(0,392.61)" d="M80,0h340" style="stroke: rgb(255, 255, 255); stroke-opacity: 1; stroke-width: 1px;"/><path class="ygrid crisp" transform="translate(0,356.99)" d="M80,0h340" style="stroke: rgb(255, 255, 255); stroke-opacity: 1; stroke-width: 1px;"/><path class="ygrid crisp" transform="translate(0,330.05)" d="M80,0h340" style="stroke: rgb(255, 255, 255); stroke-opacity: 1; stroke-width: 1px;"/><path class="ygrid crisp" transform="translate(0,303.1)" d="M80,0h340" style="stroke: rgb(255, 255, 255); stroke-opacity: 1; stroke-width: 1px;"/><path class="ygrid crisp" transform="translate(0,267.48)" d="M80,0h340" style="stroke: rgb(255, 255, 255); stroke-opacity: 1; stroke-width: 1px;"/><path class="ygrid crisp" transform="translate(0,240.54)" d="M80,0h340" style="stroke: rgb(255, 255, 255); stroke-opacity: 1; stroke-width: 1px;"/><path class="ygrid crisp" transform="translate(0,213.59)" d="M80,0h340" style="stroke: rgb(255, 255, 255); stroke-opacity: 1; stroke-width: 1px;"/><path class="ygrid crisp" transform="translate(0,177.97)" d="M80,0h340" style="stroke: rgb(255, 255, 255); stroke-opacity: 1; stroke-width: 1px;"/><path class="ygrid crisp" transform="translate(0,151.02)" d="M80,0h340" style="stroke: rgb(255, 255, 255); stroke-opacity: 1; stroke-width: 1px;"/><path class="ygrid crisp" transform="translate(0,124.08)" d="M80,0h340" style="stroke: rgb(255, 255, 255); stroke-opacity: 1; stroke-width: 1px;"/></g></g><g class="zerolinelayer"/><path class="xlines-below"/><path class="ylines-below"/><g class="overlines-below"/><g class="xaxislayer-below"/><g class="yaxislayer-below"/><g class="overaxes-below"/><g class="plot" transform="translate(80, 100)" clip-path="url('#clip6baf0fxyplot')"><g class="scatterlayer mlayer"><g class="trace scatter trace3e330a" style="stroke-miterlimit: 2; opacity: 1;"><g class="fills"/><g class="errorbars"/><g class="lines"><path class="js-line" d="M0,230.05L340,230.05L340,230.05" style="vector-effect: non-scaling-stroke; fill: none; stroke: rgb(44, 160, 44); stroke-opacity: 1; stroke-width: 2px; opacity: 1;"/></g><g class="points"/><g class="text"/></g><g class="trace scatter trace27e654" style="stroke-miterlimit: 2; opacity: 1;"><g class="fills"/><g class="errorbars"/><g class="lines"><path class="js-line" d="M0,278.36L0,244.31L0,280.91L26.15,278.02L26.15,231.19L26.15,249.73L52.31,275.8L52.31,264.42L52.31,276.58L52.31,272.98L78.46,207.7L78.46,243.19L104.62,91.5L104.62,294.93L104.62,188.48L130.77,130.98L130.77,291.08L156.92,219.77L156.92,242.22L156.92,220.1L183.08,287.04L183.08,141.62L209.23,290.88L209.23,95.1L209.23,155.75L235.38,176.93L235.38,304L235.38,299.85L261.54,217.57L261.54,298.08L287.69,172.51L287.69,114.24L287.69,171.76L313.85,255.67L313.85,303.26L313.85,16L340,278.46L340,112.05L340,218.87" style="vector-effect: non-scaling-stroke; fill: none; stroke: url(#pattern1); stroke-opacity: 1; stroke-width: 2px; opacity: 1;"/></g><g class="points"/><g class="text"/></g></g></g><g class="overplot"/><path class="xlines-above crisp" d="M0,0" style="fill: none;"/><path class="ylines-above crisp" d="M0,0" style="fill: none;"/><g class="overlines-above"/><g class="xaxislayer-above"><g class="xtick"><text text-anchor="middle" x="0" y="433" transform="translate(158.45999999999998,0)" style="font-family: arial, verdana, arial, arial; font-size: 12px; fill: rgb(42, 63, 95); fill-opacity: 1; white-space: pre;">5</text></g><g class="xtick"><text text-anchor="middle" x="0" y="433" transform="translate(289.23,0)" style="font-family: arial, verdana, arial, arial; font-size: 12px; fill: rgb(42, 63, 95); fill-opacity: 1; white-space: pre;">10</text></g><g class="xtick"><text text-anchor="middle" x="0" y="433" transform="translate(420,0)" style="font-family: arial, verdana, arial, arial; font-size: 12px; fill: rgb(42, 63, 95); fill-opacity: 1; white-space: pre;">15</text></g></g><g class="yaxislayer-above"><g class="ytick"><text text-anchor="end" x="79" y="4.199999999999999" transform="translate(0,419.56)" style="font-family: arial, verdana, arial, arial; font-size: 12px; fill: rgb(42, 63, 95); fill-opacity: 1; white-space: pre;">0.1</text></g><g class="ytick"><text text-anchor="end" x="79" y="3.15" transform="translate(0,392.61)" style="font-family: arial, verdana, arial, arial; font-size: 9px; fill: rgb(42, 63, 95); fill-opacity: 1; white-space: pre;">2</text></g><g class="ytick"><text text-anchor="end" x="79" y="3.15" transform="translate(0,356.99)" style="font-family: arial, verdana, arial, arial; font-size: 9px; fill: rgb(42, 63, 95); fill-opacity: 1; white-space: pre;">5</text></g><g class="ytick"><text text-anchor="end" x="79" y="4.199999999999999" transform="translate(0,330.05)" style="font-family: arial, verdana, arial, arial; font-size: 12px; fill: rgb(42, 63, 95); fill-opacity: 1; white-space: pre;">1</text></g><g class="ytick"><text text-anchor="end" x="79" y="3.15" transform="translate(0,303.1)" style="font-family: arial, verdana, arial, arial; font-size: 9px; fill: rgb(42, 63, 95); fill-opacity: 1; white-space: pre;">2</text></g><g class="ytick"><text text-anchor="end" x="79" y="3.15" transform="translate(0,267.48)" style="font-family: arial, verdana, arial, arial; font-size: 9px; fill: rgb(42, 63, 95); fill-opacity: 1; white-space: pre;">5</text></g><g class="ytick"><text text-anchor="end" x="79" y="4.199999999999999" transform="translate(0,240.54)" style="font-family: arial, verdana, arial, arial; font-size: 12px; fill: rgb(42, 63, 95); fill-opacity: 1; white-space: pre;">10</text></g><g class="ytick"><text text-anchor="end" x="79" y="3.15" transform="translate(0,213.59)" style="font-family: arial, verdana, arial, arial; font-size: 9px; fill: rgb(42, 63, 95); fill-opacity: 1; white-space: pre;">2</text></g><g class="ytick"><text text-anchor="end" x="79" y="3.15" transform="translate(0,177.97)" style="font-family: arial, verdana, arial, arial; font-size: 9px; fill: rgb(42, 63, 95); fill-opacity: 1; white-space: pre;">5</text></g><g class="ytick"><text text-anchor="end" x="79" y="4.199999999999999" transform="translate(0,151.02)" style="font-family: arial, verdana, arial, arial; font-size: 12px; fill: rgb(42, 63, 95); fill-opacity: 1; white-space: pre;">100</text></g><g class="ytick"><text text-anchor="end" x="79" y="3.15" transform="translate(0,124.08)" style="font-family: arial, verdana, arial, arial; font-size: 9px; fill: rgb(42, 63, 95); fill-opacity: 1; white-space: pre;">2</text></g></g><g class="overaxes-above"/></g></g><g class="polarlayer"/><g class="ternarylayer"/><g class="geolayer"/><g class="funnelarealayer"/><g class="pielayer"/><g class="sunburstlayer"/><g class="glimages"/><defs id="topdefs-6baf0f"><g class="clips"/></defs><g class="layer-above"><g class="imagelayer"/><g class="shapelayer"/></g><g class="infolayer"><g class="g-gtitle"/><g class="g-xtitle"/><g class="g-ytitle"/></g></svg>
