<svg xmlns="http://www.w3.org/2000/svg" xmlns:xlink="http://www.w3.org/1999/xlink" class="main-svg"  width="315" height="290" viewBox="55 85 370 365">
<defs>
	<pattern id="pattern0" patternUnits="userSpaceOnUse" width="10" height="10">
		<rect x="0" y="0" width="10" height="10" style="fill: rgb(148, 103, 190)"/>
        <line x1="4" x2="4" y1="0" y2="10" style="stroke: white;stroke-width:2"/>
	</pattern>
	<pattern id="pattern1" patternUnits="userSpaceOnUse" width="10" height="10">
		<rect x="0" y="0" width="10" height="10" style="fill: rgb(255, 127, 15)"/>
        <line x1="4" x2="4" y1="0" y2="10" style="stroke: white;stroke-width:2"/>
	</pattern>
	<pattern id="pattern2" patternUnits="userSpaceOnUse" width="10" height="10">
		<rect x="0" y="0" width="10" height="10" style="fill: rgb(31, 119, 181)"/>
        <line x1="4" x2="4" y1="0" y2="10" style="stroke: white;stroke-width:2"/>
	</pattern>
	<pattern id="pattern3" patternUnits="userSpaceOnUse" width="10" height="10">
		<rect x="0" y="0" width="10" height="10" style="fill: rgb(214, 39, 41)"/>
        <line x1="4" x2="4" y1="0" y2="10" style="stroke: white;stroke-width:2"/>
	</pattern>
	<pattern id="pattern4" patternUnits="userSpaceOnUse" width="10" height="10">
		<rect x="0" y="0" width="10" height="10" style="fill: rgb(44, 160, 45)"/>
        <line x1="4" x2="4" y1="0" y2="10" style="stroke: white;stroke-width:2"/>
	</pattern></defs><rect x="0" y="0" width="500" height="500" style="fill: rgb(255, 255, 255); fill-opacity: 1;"/><defs id="defs-e6ead5"><g class="clips"><clipPath id="clipe6ead5xyplot" class="plotclip"><rect width="340" height="320"/></clipPath><clipPath class="axesclip" id="clipe6ead5x"><rect x="80" y="0" width="340" height="500"/></clipPath><clipPath class="axesclip" id="clipe6ead5y"><rect x="0" y="100" width="500" height="320"/></clipPath><clipPath class="axesclip" id="clipe6ead5xy"><rect x="80" y="100" width="340" height="320"/></clipPath></g><g class="gradients"/></defs><g class="bglayer"><rect class="bg" x="80" y="100" width="340" height="320" style="fill: rgb(229, 236, 246); fill-opacity: 1; stroke-width: 0;"/></g><g class="layer-below"><g class="imagelayer"/><g class="shapelayer"/></g><g class="cartesianlayer"><g class="subplot xy"><g class="layer-subplot"><g class="shapelayer"/><g class="imagelayer"/></g><g class="gridlayer"><g class="x"><path class="xgrid crisp" transform="translate(158.45999999999998,0)" d="M0,100v320" style="stroke: rgb(255, 255, 255); stroke-opacity: 1; stroke-width: 1px;"/><path class="xgrid crisp" transform="translate(289.23,0)" d="M0,100v320" style="stroke: rgb(255, 255, 255); stroke-opacity: 1; stroke-width: 1px;"/></g><g class="y"><path class="ygrid crisp" transform="translate(0,407.32)" d="M80,0h340" style="stroke: rgb(255, 255, 255); stroke-opacity: 1; stroke-width: 1px;"/><path class="ygrid crisp" transform="translate(0,389.6)" d="M80,0h340" style="stroke: rgb(255, 255, 255); stroke-opacity: 1; stroke-width: 1px;"/><path class="ygrid crisp" transform="translate(0,366.19)" d="M80,0h340" style="stroke: rgb(255, 255, 255); stroke-opacity: 1; stroke-width: 1px;"/><path class="ygrid crisp" transform="translate(0,348.48)" d="M80,0h340" style="stroke: rgb(255, 255, 255); stroke-opacity: 1; stroke-width: 1px;"/><path class="ygrid crisp" transform="translate(0,330.76)" d="M80,0h340" style="stroke: rgb(255, 255, 255); stroke-opacity: 1; stroke-width: 1px;"/><path class="ygrid crisp" transform="translate(0,307.35)" d="M80,0h340" style="stroke: rgb(255, 255, 255); stroke-opacity: 1; stroke-width: 1px;"/><path class="ygrid crisp" transform="translate(0,289.64)" d="M80,0h340" style="stroke: rgb(255, 255, 255); stroke-opacity: 1; stroke-width: 1px;"/><path class="ygrid crisp" transform="translate(0,271.91999999999996)" d="M80,0h340" style="stroke: rgb(255, 255, 255); stroke-opacity: 1; stroke-width: 1px;"/><path class="ygrid crisp" transform="translate(0,248.51)" d="M80,0h340" style="stroke: rgb(255, 255, 255); stroke-opacity: 1; stroke-width: 1px;"/><path class="ygrid crisp" transform="translate(0,230.8)" d="M80,0h340" style="stroke: rgb(255, 255, 255); stroke-opacity: 1; stroke-width: 1px;"/><path class="ygrid crisp" transform="translate(0,213.09)" d="M80,0h340" style="stroke: rgb(255, 255, 255); stroke-opacity: 1; stroke-width: 1px;"/><path class="ygrid crisp" transform="translate(0,189.67000000000002)" d="M80,0h340" style="stroke: rgb(255, 255, 255); stroke-opacity: 1; stroke-width: 1px;"/><path class="ygrid crisp" transform="translate(0,171.95999999999998)" d="M80,0h340" style="stroke: rgb(255, 255, 255); stroke-opacity: 1; stroke-width: 1px;"/><path class="ygrid crisp" transform="translate(0,154.25)" d="M80,0h340" style="stroke: rgb(255, 255, 255); stroke-opacity: 1; stroke-width: 1px;"/><path class="ygrid crisp" transform="translate(0,130.82999999999998)" d="M80,0h340" style="stroke: rgb(255, 255, 255); stroke-opacity: 1; stroke-width: 1px;"/><path class="ygrid crisp" transform="translate(0,113.12)" d="M80,0h340" style="stroke: rgb(255, 255, 255); stroke-opacity: 1; stroke-width: 1px;"/></g></g><g class="zerolinelayer"/><path class="xlines-below"/><path class="ylines-below"/><g class="overlines-below"/><g class="xaxislayer-below"/><g class="yaxislayer-below"/><g class="overaxes-below"/><g class="plot" transform="translate(80, 100)" clip-path="url('#clipe6ead5xyplot')"><g class="scatterlayer mlayer"><g class="trace scatter traceef9be7" style="stroke-miterlimit: 2; opacity: 1;"><g class="fills"/><g class="errorbars"/><g class="lines"><path class="js-line" d="M0,71.96L340,71.96L340,71.96" style="vector-effect: non-scaling-stroke; fill: none; stroke: rgb(31, 119, 180); stroke-opacity: 1; stroke-width: 2px; opacity: 1;"/></g><g class="points"/><g class="text"/></g><g class="trace scatter trace4f771d" style="stroke-miterlimit: 2; opacity: 1;"><g class="fills"/><g class="errorbars"/><g class="lines"><path class="js-line" d="M0,36.42L0,35.7L0,36.58L26.15,47.33L26.15,28.79L52.31,40.54L52.31,36.71L52.31,43.68L52.31,43.1L78.46,33.77L78.46,54.32L78.46,37.65L104.62,18.77L104.62,80.5L104.62,17.26L130.77,49.13L130.77,40.39L156.92,73.85L156.92,35.12L183.08,62.22L183.08,35.82L209.23,69.39L209.23,124.7L209.23,16L235.38,84.92L235.38,249.68L235.38,44.6L261.54,95.82L261.54,43.14L287.69,39.17L287.69,74.38L287.69,49.27L313.85,304L313.85,40.35L340,73.33L340,99.89L340,45.81" style="vector-effect: non-scaling-stroke; fill: none; stroke: rgb(255, 127, 14); stroke-opacity: 1; stroke-width: 2px; opacity: 1;"/></g><g class="points"/><g class="text"/></g><g class="trace scatter tracec77a33" style="stroke-miterlimit: 2; opacity: 1;"><g class="fills"/><g class="errorbars"/><g class="lines"><path class="js-line" d="M0,68.94L0,40.62L0,75.67L0,68.79L26.15,96.88L26.15,61.41L52.31,115.32L52.31,95.58L52.31,97.24L78.46,74.34L78.46,112.33L78.46,97.96L104.62,23.05L104.62,155.44L104.62,79.42L130.77,74.92L130.77,171.9L156.92,129.14L156.92,155.93L156.92,128.92L183.08,206.91L183.08,101L209.23,223.38L209.23,103.04L209.23,233.37L209.23,131.66L235.38,178.62L235.38,249.08L235.38,246.42L261.54,208.94L261.54,265.46L287.69,195.36L287.69,170.13L287.69,194.71L313.85,303.23L313.85,99.87L340,301.56L340,219.45L340,273.13" style="vector-effect: non-scaling-stroke; fill: none; stroke: url(#pattern1); stroke-opacity: 1; stroke-width: 2px; opacity: 1;"/></g><g class="points"/><g class="text"/></g></g></g><g class="overplot"/><path class="xlines-above crisp" d="M0,0" style="fill: none;"/><path class="ylines-above crisp" d="M0,0" style="fill: none;"/><g class="overlines-above"/><g class="xaxislayer-above"><g class="xtick"><text text-anchor="middle" x="0" y="433" transform="translate(158.45999999999998,0)" style="font-family: arial, verdana, arial, arial; font-size: 12px; fill: rgb(42, 63, 95); fill-opacity: 1; white-space: pre;">5</text></g><g class="xtick"><text text-anchor="middle" x="0" y="433" transform="translate(289.23,0)" style="font-family: arial, verdana, arial, arial; font-size: 12px; fill: rgb(42, 63, 95); fill-opacity: 1; white-space: pre;">10</text></g><g class="xtick"><text text-anchor="middle" x="0" y="433" transform="translate(420,0)" style="font-family: arial, verdana, arial, arial; font-size: 12px; fill: rgb(42, 63, 95); fill-opacity: 1; white-space: pre;">15</text></g></g><g class="yaxislayer-above"><g class="ytick"><text text-anchor="end" x="79" y="4.199999999999999" transform="translate(0,407.32)" style="font-family: arial, verdana, arial, arial; font-size: 12px; fill: rgb(42, 63, 95); fill-opacity: 1; white-space: pre;">100μ</text></g><g class="ytick"><text text-anchor="end" x="79" y="3.15" transform="translate(0,389.6)" style="font-family: arial, verdana, arial, arial; font-size: 9px; fill: rgb(42, 63, 95); fill-opacity: 1; white-space: pre;">2</text></g><g class="ytick"><text text-anchor="end" x="79" y="3.15" transform="translate(0,366.19)" style="font-family: arial, verdana, arial, arial; font-size: 9px; fill: rgb(42, 63, 95); fill-opacity: 1; white-space: pre;">5</text></g><g class="ytick"><text text-anchor="end" x="79" y="4.199999999999999" transform="translate(0,348.48)" style="font-family: arial, verdana, arial, arial; font-size: 12px; fill: rgb(42, 63, 95); fill-opacity: 1; white-space: pre;">0.001</text></g><g class="ytick"><text text-anchor="end" x="79" y="3.15" transform="translate(0,330.76)" style="font-family: arial, verdana, arial, arial; font-size: 9px; fill: rgb(42, 63, 95); fill-opacity: 1; white-space: pre;">2</text></g><g class="ytick"><text text-anchor="end" x="79" y="3.15" transform="translate(0,307.35)" style="font-family: arial, verdana, arial, arial; font-size: 9px; fill: rgb(42, 63, 95); fill-opacity: 1; white-space: pre;">5</text></g><g class="ytick"><text text-anchor="end" x="79" y="4.199999999999999" transform="translate(0,289.64)" style="font-family: arial, verdana, arial, arial; font-size: 12px; fill: rgb(42, 63, 95); fill-opacity: 1; white-space: pre;">0.01</text></g><g class="ytick"><text text-anchor="end" x="79" y="3.15" transform="translate(0,271.91999999999996)" style="font-family: arial, verdana, arial, arial; font-size: 9px; fill: rgb(42, 63, 95); fill-opacity: 1; white-space: pre;">2</text></g><g class="ytick"><text text-anchor="end" x="79" y="3.15" transform="translate(0,248.51)" style="font-family: arial, verdana, arial, arial; font-size: 9px; fill: rgb(42, 63, 95); fill-opacity: 1; white-space: pre;">5</text></g><g class="ytick"><text text-anchor="end" x="79" y="4.199999999999999" transform="translate(0,230.8)" style="font-family: arial, verdana, arial, arial; font-size: 12px; fill: rgb(42, 63, 95); fill-opacity: 1; white-space: pre;">0.1</text></g><g class="ytick"><text text-anchor="end" x="79" y="3.15" transform="translate(0,213.09)" style="font-family: arial, verdana, arial, arial; font-size: 9px; fill: rgb(42, 63, 95); fill-opacity: 1; white-space: pre;">2</text></g><g class="ytick"><text text-anchor="end" x="79" y="3.15" transform="translate(0,189.67000000000002)" style="font-family: arial, verdana, arial, arial; font-size: 9px; fill: rgb(42, 63, 95); fill-opacity: 1; white-space: pre;">5</text></g><g class="ytick"><text text-anchor="end" x="79" y="4.199999999999999" transform="translate(0,171.95999999999998)" style="font-family: arial, verdana, arial, arial; font-size: 12px; fill: rgb(42, 63, 95); fill-opacity: 1; white-space: pre;">1</text></g><g class="ytick"><text text-anchor="end" x="79" y="3.15" transform="translate(0,154.25)" style="font-family: arial, verdana, arial, arial; font-size: 9px; fill: rgb(42, 63, 95); fill-opacity: 1; white-space: pre;">2</text></g><g class="ytick"><text text-anchor="end" x="79" y="3.15" transform="translate(0,130.82999999999998)" style="font-family: arial, verdana, arial, arial; font-size: 9px; fill: rgb(42, 63, 95); fill-opacity: 1; white-space: pre;">5</text></g><g class="ytick"><text text-anchor="end" x="79" y="4.199999999999999" transform="translate(0,113.12)" style="font-family: arial, verdana, arial, arial; font-size: 12px; fill: rgb(42, 63, 95); fill-opacity: 1; white-space: pre;">10</text></g></g><g class="overaxes-above"/></g></g><g class="polarlayer"/><g class="ternarylayer"/><g class="geolayer"/><g class="funnelarealayer"/><g class="pielayer"/><g class="sunburstlayer"/><g class="glimages"/><defs id="topdefs-e6ead5"><g class="clips"/></defs><g class="layer-above"><g class="imagelayer"/><g class="shapelayer"/></g><g class="infolayer"><g class="g-gtitle"/><g class="g-xtitle"/><g class="g-ytitle"/></g></svg>
