<svg class="main-svg" xmlns="http://www.w3.org/2000/svg" xmlns:xlink="http://www.w3.org/1999/xlink" width="1000" height="500" viewBox="0 0 1000 500">
<defs>
	<pattern id="pattern0" patternUnits="userSpaceOnUse" width="10" height="10">
		<rect x="0" y="0" width="10" height="10" style="fill: rgb(148, 103, 190)"/>
		<line x1="0" y1="0" x2="10" y2="10" style="stroke: white;stroke-width:2"/>
		<line x1="-1" x2="1" y1="9" y2="11" style="stroke: white;stroke-width:2"/>
		<line x1="9" x2="11" y1="-1" y2="1" style="stroke: white;stroke-width:2"/>
	</pattern>
	<pattern id="pattern1" patternUnits="userSpaceOnUse" width="10" height="10">
		<rect x="0" y="0" width="10" height="10" style="fill: rgb(255, 127, 15)"/>
		<line x1="0" y1="0" x2="10" y2="10" style="stroke: white;stroke-width:2"/>
		<line x1="-1" x2="1" y1="9" y2="11" style="stroke: white;stroke-width:2"/>
		<line x1="9" x2="11" y1="-1" y2="1" style="stroke: white;stroke-width:2"/>
	</pattern>
	<pattern id="pattern2" patternUnits="userSpaceOnUse" width="10" height="10">
		<rect x="0" y="0" width="10" height="10" style="fill: rgb(31, 119, 181)"/>
		<line x1="0" y1="0" x2="10" y2="10" style="stroke: white;stroke-width:2"/>
		<line x1="-1" x2="1" y1="9" y2="11" style="stroke: white;stroke-width:2"/>
		<line x1="9" x2="11" y1="-1" y2="1" style="stroke: white;stroke-width:2"/>
	</pattern>
	<pattern id="pattern3" patternUnits="userSpaceOnUse" width="10" height="10">
		<rect x="0" y="0" width="10" height="10" style="fill: rgb(214, 39, 41)"/>
		<line x1="0" y1="0" x2="10" y2="10" style="stroke: white;stroke-width:2"/>
		<line x1="-1" x2="1" y1="9" y2="11" style="stroke: white;stroke-width:2"/>
		<line x1="9" x2="11" y1="-1" y2="1" style="stroke: white;stroke-width:2"/>
	</pattern>
	<pattern id="pattern4" patternUnits="userSpaceOnUse" width="10" height="10">
		<rect x="0" y="0" width="10" height="10" style="fill: rgb(44, 160, 45)"/>
		<line x1="0" y1="0" x2="10" y2="10" style="stroke: white;stroke-width:2"/>
		<line x1="-1" x2="1" y1="9" y2="11" style="stroke: white;stroke-width:2"/>
		<line x1="9" x2="11" y1="-1" y2="1" style="stroke: white;stroke-width:2"/>
	</pattern></defs><rect x="0" y="0" width="1000" height="500" style="fill: rgb(255, 255, 255); fill-opacity: 1;"/><defs id="defs-259420"><g class="clips"><clipPath id="clip259420xyplot" class="plotclip"><rect width="840" height="320"/></clipPath><clipPath class="axesclip" id="clip259420x"><rect x="80" y="0" width="840" height="500"/></clipPath><clipPath class="axesclip" id="clip259420y"><rect x="0" y="100" width="1000" height="320"/></clipPath><clipPath class="axesclip" id="clip259420xy"><rect x="80" y="100" width="840" height="320"/></clipPath></g><g class="gradients"/></defs><g class="bglayer"><rect class="bg" x="80" y="100" width="840" height="320" style="fill: rgb(229, 236, 246); fill-opacity: 1; stroke-width: 0;"/></g><g class="layer-below"><g class="imagelayer"/><g class="shapelayer"/></g><g class="cartesianlayer"><g class="subplot xy"><g class="layer-subplot"><g class="shapelayer"/><g class="imagelayer"/></g><g class="gridlayer"><g class="x"/><g class="y"><path class="ygrid crisp" transform="translate(0,375.91)" d="M80,0h840" style="stroke: rgb(255, 255, 255); stroke-opacity: 1; stroke-width: 1px;"/><path class="ygrid crisp" transform="translate(0,322.77)" d="M80,0h840" style="stroke: rgb(255, 255, 255); stroke-opacity: 1; stroke-width: 1px;"/><path class="ygrid crisp" transform="translate(0,281.55)" d="M80,0h840" style="stroke: rgb(255, 255, 255); stroke-opacity: 1; stroke-width: 1px;"/><path class="ygrid crisp" transform="translate(0,247.88)" d="M80,0h840" style="stroke: rgb(255, 255, 255); stroke-opacity: 1; stroke-width: 1px;"/><path class="ygrid crisp" transform="translate(0,219.41)" d="M80,0h840" style="stroke: rgb(255, 255, 255); stroke-opacity: 1; stroke-width: 1px;"/><path class="ygrid crisp" transform="translate(0,194.74)" d="M80,0h840" style="stroke: rgb(255, 255, 255); stroke-opacity: 1; stroke-width: 1px;"/><path class="ygrid crisp" transform="translate(0,172.99)" d="M80,0h840" style="stroke: rgb(255, 255, 255); stroke-opacity: 1; stroke-width: 1px;"/><path class="ygrid crisp" transform="translate(0,153.53)" d="M80,0h840" style="stroke: rgb(255, 255, 255); stroke-opacity: 1; stroke-width: 1px;"/><path class="ygrid crisp" transform="translate(0,135.92000000000002)" d="M80,0h840" style="stroke: rgb(255, 255, 255); stroke-opacity: 1; stroke-width: 1px;"/><path class="ygrid crisp" transform="translate(0,119.85)" d="M80,0h840" style="stroke: rgb(255, 255, 255); stroke-opacity: 1; stroke-width: 1px;"/><path class="ygrid crisp" transform="translate(0,105.07)" d="M80,0h840" style="stroke: rgb(255, 255, 255); stroke-opacity: 1; stroke-width: 1px;"/></g></g><g class="zerolinelayer"/><path class="xlines-below"/><path class="ylines-below"/><g class="overlines-below"/><g class="xaxislayer-below"/><g class="yaxislayer-below"/><g class="overaxes-below"/><g class="plot" transform="translate(80, 100)" clip-path="url('#clip259420xyplot')"><g class="barlayer mlayer"><g class="trace bars" style="opacity: 1;"><g class="points"><g class="point"><path d="M1.5,3360V53.35H13.5V3360Z" style="vector-effect: non-scaling-stroke; opacity: 1; stroke-width: 0.5px; fill: url(#pattern2); fill-opacity: 1; stroke: rgb(229, 236, 246); stroke-opacity: 1;"/></g><g class="point"><path d="M16.5,3360V118.11H28.5V3360Z" style="vector-effect: non-scaling-stroke; opacity: 1; stroke-width: 0.5px; fill: url(#pattern2); fill-opacity: 1; stroke: rgb(229, 236, 246); stroke-opacity: 1;"/></g><g class="point"><path d="M31.5,3360V56.57H43.5V3360Z" style="vector-effect: non-scaling-stroke; opacity: 1; stroke-width: 0.5px; fill: url(#pattern2); fill-opacity: 1; stroke: rgb(229, 236, 246); stroke-opacity: 1;"/></g><g class="point"><path d="M46.5,3360V129.96H58.5V3360Z" style="vector-effect: non-scaling-stroke; opacity: 1; stroke-width: 0.5px; fill: url(#pattern2); fill-opacity: 1; stroke: rgb(229, 236, 246); stroke-opacity: 1;"/></g><g class="point"><path d="M61.5,3360V89.97H73.5V3360Z" style="vector-effect: non-scaling-stroke; opacity: 1; stroke-width: 0.5px; fill: url(#pattern2); fill-opacity: 1; stroke: rgb(229, 236, 246); stroke-opacity: 1;"/></g><g class="point"><path d="M76.5,3360V178.5H88.5V3360Z" style="vector-effect: non-scaling-stroke; opacity: 1; stroke-width: 0.5px; fill: url(#pattern2); fill-opacity: 1; stroke: rgb(229, 236, 246); stroke-opacity: 1;"/></g><g class="point"><path d="M91.5,3360V55.5H103.5V3360Z" style="vector-effect: non-scaling-stroke; opacity: 1; stroke-width: 0.5px; fill: url(#pattern2); fill-opacity: 1; stroke: rgb(229, 236, 246); stroke-opacity: 1;"/></g><g class="point"><path d="M106.5,3360V83.56H118.5V3360Z" style="vector-effect: non-scaling-stroke; opacity: 1; stroke-width: 0.5px; fill: url(#pattern2); fill-opacity: 1; stroke: rgb(229, 236, 246); stroke-opacity: 1;"/></g><g class="point"><path d="M121.5,3360V54.21H133.5V3360Z" style="vector-effect: non-scaling-stroke; opacity: 1; stroke-width: 0.5px; fill: url(#pattern2); fill-opacity: 1; stroke: rgb(229, 236, 246); stroke-opacity: 1;"/></g><g class="point"><path d="M136.5,3360V137.85H148.5V3360Z" style="vector-effect: non-scaling-stroke; opacity: 1; stroke-width: 0.5px; fill: url(#pattern2); fill-opacity: 1; stroke: rgb(229, 236, 246); stroke-opacity: 1;"/></g><g class="point"><path d="M151.5,3360V52.57H163.5V3360Z" style="vector-effect: non-scaling-stroke; opacity: 1; stroke-width: 0.5px; fill: url(#pattern2); fill-opacity: 1; stroke: rgb(229, 236, 246); stroke-opacity: 1;"/></g><g class="point"><path d="M166.5,3360V52.6H178.5V3360Z" style="vector-effect: non-scaling-stroke; opacity: 1; stroke-width: 0.5px; fill: url(#pattern2); fill-opacity: 1; stroke: rgb(229, 236, 246); stroke-opacity: 1;"/></g><g class="point"><path d="M181.5,3360V154.2H193.5V3360Z" style="vector-effect: non-scaling-stroke; opacity: 1; stroke-width: 0.5px; fill: url(#pattern2); fill-opacity: 1; stroke: rgb(229, 236, 246); stroke-opacity: 1;"/></g><g class="point"><path d="M196.5,3360V143.65H208.5V3360Z" style="vector-effect: non-scaling-stroke; opacity: 1; stroke-width: 0.5px; fill: url(#pattern2); fill-opacity: 1; stroke: rgb(229, 236, 246); stroke-opacity: 1;"/></g><g class="point"><path d="M211.5,3360V52.21H223.5V3360Z" style="vector-effect: non-scaling-stroke; opacity: 1; stroke-width: 0.5px; fill: url(#pattern2); fill-opacity: 1; stroke: rgb(229, 236, 246); stroke-opacity: 1;"/></g><g class="point"><path d="M226.5,3360V44.34H238.5V3360Z" style="vector-effect: non-scaling-stroke; opacity: 1; stroke-width: 0.5px; fill: url(#pattern2); fill-opacity: 1; stroke: rgb(229, 236, 246); stroke-opacity: 1;"/></g><g class="point"><path d="M241.5,3360V159.8H253.5V3360Z" style="vector-effect: non-scaling-stroke; opacity: 1; stroke-width: 0.5px; fill: url(#pattern2); fill-opacity: 1; stroke: rgb(229, 236, 246); stroke-opacity: 1;"/></g><g class="point"><path d="M256.5,3360V52.57H268.5V3360Z" style="vector-effect: non-scaling-stroke; opacity: 1; stroke-width: 0.5px; fill: url(#pattern2); fill-opacity: 1; stroke: rgb(229, 236, 246); stroke-opacity: 1;"/></g><g class="point"><path d="M271.5,3360V150.62H283.5V3360Z" style="vector-effect: non-scaling-stroke; opacity: 1; stroke-width: 0.5px; fill: url(#pattern2); fill-opacity: 1; stroke: rgb(229, 236, 246); stroke-opacity: 1;"/></g><g class="point"><path d="M286.5,3360V53.15H298.5V3360Z" style="vector-effect: non-scaling-stroke; opacity: 1; stroke-width: 0.5px; fill: url(#pattern2); fill-opacity: 1; stroke: rgb(229, 236, 246); stroke-opacity: 1;"/></g><g class="point"><path d="M301.5,3360V105.69H313.5V3360Z" style="vector-effect: non-scaling-stroke; opacity: 1; stroke-width: 0.5px; fill: url(#pattern2); fill-opacity: 1; stroke: rgb(229, 236, 246); stroke-opacity: 1;"/></g><g class="point"><path d="M316.5,3360V53.8H328.5V3360Z" style="vector-effect: non-scaling-stroke; opacity: 1; stroke-width: 0.5px; fill: url(#pattern2); fill-opacity: 1; stroke: rgb(229, 236, 246); stroke-opacity: 1;"/></g><g class="point"><path d="M331.5,3360V52.12H343.5V3360Z" style="vector-effect: non-scaling-stroke; opacity: 1; stroke-width: 0.5px; fill: url(#pattern2); fill-opacity: 1; stroke: rgb(229, 236, 246); stroke-opacity: 1;"/></g><g class="point"><path d="M346.5,3360V55.51H358.5V3360Z" style="vector-effect: non-scaling-stroke; opacity: 1; stroke-width: 0.5px; fill: url(#pattern2); fill-opacity: 1; stroke: rgb(229, 236, 246); stroke-opacity: 1;"/></g><g class="point"><path d="M361.5,3360V42.87H373.5V3360Z" style="vector-effect: non-scaling-stroke; opacity: 1; stroke-width: 0.5px; fill: url(#pattern2); fill-opacity: 1; stroke: rgb(229, 236, 246); stroke-opacity: 1;"/></g><g class="point"><path d="M376.5,3360V172.56H388.5V3360Z" style="vector-effect: non-scaling-stroke; opacity: 1; stroke-width: 0.5px; fill: url(#pattern2); fill-opacity: 1; stroke: rgb(229, 236, 246); stroke-opacity: 1;"/></g><g class="point"><path d="M391.5,3360V52.55H403.5V3360Z" style="vector-effect: non-scaling-stroke; opacity: 1; stroke-width: 0.5px; fill: url(#pattern2); fill-opacity: 1; stroke: rgb(229, 236, 246); stroke-opacity: 1;"/></g><g class="point"><path d="M406.5,3360V54.87H418.5V3360Z" style="vector-effect: non-scaling-stroke; opacity: 1; stroke-width: 0.5px; fill: url(#pattern2); fill-opacity: 1; stroke: rgb(229, 236, 246); stroke-opacity: 1;"/></g><g class="point"><path d="M421.5,3360V190.91H433.5V3360Z" style="vector-effect: non-scaling-stroke; opacity: 1; stroke-width: 0.5px; fill: url(#pattern2); fill-opacity: 1; stroke: rgb(229, 236, 246); stroke-opacity: 1;"/></g><g class="point"><path d="M436.5,3360V97.95H448.5V3360Z" style="vector-effect: non-scaling-stroke; opacity: 1; stroke-width: 0.5px; fill: url(#pattern2); fill-opacity: 1; stroke: rgb(229, 236, 246); stroke-opacity: 1;"/></g><g class="point"><path d="M451.5,3360V52.92H463.5V3360Z" style="vector-effect: non-scaling-stroke; opacity: 1; stroke-width: 0.5px; fill: url(#pattern2); fill-opacity: 1; stroke: rgb(229, 236, 246); stroke-opacity: 1;"/></g><g class="point"><path d="M466.5,3360V86.97H478.5V3360Z" style="vector-effect: non-scaling-stroke; opacity: 1; stroke-width: 0.5px; fill: url(#pattern2); fill-opacity: 1; stroke: rgb(229, 236, 246); stroke-opacity: 1;"/></g><g class="point"><path d="M481.5,3360V55.52H493.5V3360Z" style="vector-effect: non-scaling-stroke; opacity: 1; stroke-width: 0.5px; fill: url(#pattern2); fill-opacity: 1; stroke: rgb(229, 236, 246); stroke-opacity: 1;"/></g><g class="point"><path d="M496.5,3360V60.65H508.5V3360Z" style="vector-effect: non-scaling-stroke; opacity: 1; stroke-width: 0.5px; fill: url(#pattern2); fill-opacity: 1; stroke: rgb(229, 236, 246); stroke-opacity: 1;"/></g><g class="point"><path d="M511.5,3360V55.51H523.5V3360Z" style="vector-effect: non-scaling-stroke; opacity: 1; stroke-width: 0.5px; fill: url(#pattern2); fill-opacity: 1; stroke: rgb(229, 236, 246); stroke-opacity: 1;"/></g><g class="point"><path d="M526.5,3360V57.22H538.5V3360Z" style="vector-effect: non-scaling-stroke; opacity: 1; stroke-width: 0.5px; fill: url(#pattern2); fill-opacity: 1; stroke: rgb(229, 236, 246); stroke-opacity: 1;"/></g><g class="point"><path d="M541.5,3360V176.37H553.5V3360Z" style="vector-effect: non-scaling-stroke; opacity: 1; stroke-width: 0.5px; fill: url(#pattern2); fill-opacity: 1; stroke: rgb(229, 236, 246); stroke-opacity: 1;"/></g><g class="point"><path d="M556.5,3360V68.06H568.5V3360Z" style="vector-effect: non-scaling-stroke; opacity: 1; stroke-width: 0.5px; fill: url(#pattern2); fill-opacity: 1; stroke: rgb(229, 236, 246); stroke-opacity: 1;"/></g><g class="point"><path d="M571.5,3360V58.53H583.5V3360Z" style="vector-effect: non-scaling-stroke; opacity: 1; stroke-width: 0.5px; fill: url(#pattern2); fill-opacity: 1; stroke: rgb(229, 236, 246); stroke-opacity: 1;"/></g><g class="point"><path d="M586.5,3360V60.1H598.5V3360Z" style="vector-effect: non-scaling-stroke; opacity: 1; stroke-width: 0.5px; fill: url(#pattern2); fill-opacity: 1; stroke: rgb(229, 236, 246); stroke-opacity: 1;"/></g><g class="point"><path d="M601.5,3360V61.16H613.5V3360Z" style="vector-effect: non-scaling-stroke; opacity: 1; stroke-width: 0.5px; fill: url(#pattern2); fill-opacity: 1; stroke: rgb(229, 236, 246); stroke-opacity: 1;"/></g><g class="point"><path d="M616.5,3360V53.01H628.5V3360Z" style="vector-effect: non-scaling-stroke; opacity: 1; stroke-width: 0.5px; fill: url(#pattern2); fill-opacity: 1; stroke: rgb(229, 236, 246); stroke-opacity: 1;"/></g><g class="point"><path d="M631.5,3360V51.71H643.5V3360Z" style="vector-effect: non-scaling-stroke; opacity: 1; stroke-width: 0.5px; fill: url(#pattern2); fill-opacity: 1; stroke: rgb(229, 236, 246); stroke-opacity: 1;"/></g><g class="point"><path d="M646.5,3360V16H658.5V3360Z" style="vector-effect: non-scaling-stroke; opacity: 1; stroke-width: 0.5px; fill: url(#pattern2); fill-opacity: 1; stroke: rgb(229, 236, 246); stroke-opacity: 1;"/></g><g class="point"><path d="M661.5,3360V304H673.5V3360Z" style="vector-effect: non-scaling-stroke; opacity: 1; stroke-width: 0.5px; fill: url(#pattern2); fill-opacity: 1; stroke: rgb(229, 236, 246); stroke-opacity: 1;"/></g><g class="point"><path d="M676.5,3360V54.85H688.5V3360Z" style="vector-effect: non-scaling-stroke; opacity: 1; stroke-width: 0.5px; fill: url(#pattern2); fill-opacity: 1; stroke: rgb(229, 236, 246); stroke-opacity: 1;"/></g><g class="point"><path d="M691.5,3360V170.97H703.5V3360Z" style="vector-effect: non-scaling-stroke; opacity: 1; stroke-width: 0.5px; fill: url(#pattern2); fill-opacity: 1; stroke: rgb(229, 236, 246); stroke-opacity: 1;"/></g><g class="point"><path d="M706.5,3360V56.91H718.5V3360Z" style="vector-effect: non-scaling-stroke; opacity: 1; stroke-width: 0.5px; fill: url(#pattern2); fill-opacity: 1; stroke: rgb(229, 236, 246); stroke-opacity: 1;"/></g><g class="point"><path d="M721.5,3360V52.6H733.5V3360Z" style="vector-effect: non-scaling-stroke; opacity: 1; stroke-width: 0.5px; fill: url(#pattern2); fill-opacity: 1; stroke: rgb(229, 236, 246); stroke-opacity: 1;"/></g><g class="point"><path d="M736.5,3360V139.62H748.5V3360Z" style="vector-effect: non-scaling-stroke; opacity: 1; stroke-width: 0.5px; fill: url(#pattern2); fill-opacity: 1; stroke: rgb(229, 236, 246); stroke-opacity: 1;"/></g><g class="point"><path d="M751.5,3360V51.88H763.5V3360Z" style="vector-effect: non-scaling-stroke; opacity: 1; stroke-width: 0.5px; fill: url(#pattern2); fill-opacity: 1; stroke: rgb(229, 236, 246); stroke-opacity: 1;"/></g><g class="point"><path d="M766.5,3360V62.52H778.5V3360Z" style="vector-effect: non-scaling-stroke; opacity: 1; stroke-width: 0.5px; fill: url(#pattern2); fill-opacity: 1; stroke: rgb(229, 236, 246); stroke-opacity: 1;"/></g><g class="point"><path d="M781.5,3360V156.31H793.5V3360Z" style="vector-effect: non-scaling-stroke; opacity: 1; stroke-width: 0.5px; fill: url(#pattern2); fill-opacity: 1; stroke: rgb(229, 236, 246); stroke-opacity: 1;"/></g><g class="point"><path d="M796.5,3360V71.53H808.5V3360Z" style="vector-effect: non-scaling-stroke; opacity: 1; stroke-width: 0.5px; fill: url(#pattern2); fill-opacity: 1; stroke: rgb(229, 236, 246); stroke-opacity: 1;"/></g><g class="point"><path d="M811.5,3360V54.69H823.5V3360Z" style="vector-effect: non-scaling-stroke; opacity: 1; stroke-width: 0.5px; fill: url(#pattern2); fill-opacity: 1; stroke: rgb(229, 236, 246); stroke-opacity: 1;"/></g><g class="point"><path d="M826.5,3360V66.41H838.5V3360Z" style="vector-effect: non-scaling-stroke; opacity: 1; stroke-width: 0.5px; fill: url(#pattern2); fill-opacity: 1; stroke: rgb(229, 236, 246); stroke-opacity: 1;"/></g></g></g></g><g class="scatterlayer mlayer"><g class="trace scatter trace74b67b" style="stroke-miterlimit: 2; opacity: 1;"><g class="fills"/><g class="errorbars"/><g class="lines"><path class="js-line" d="M7.5,53.53L832.5,53.53" style="vector-effect: non-scaling-stroke; fill: none; stroke: rgb(31, 119, 180); stroke-opacity: 1; stroke-width: 2px; opacity: 1;"/></g><g class="points"/><g class="text"/></g></g></g><g class="overplot"/><path class="xlines-above crisp" d="M0,0" style="fill: none;"/><path class="ylines-above crisp" d="M0,0" style="fill: none;"/><g class="overlines-above"/><g class="xaxislayer-above"><g class="xtick"><text text-anchor="start" x="0" y="433" transform="translate(87.5,0) rotate(90,0,427)" style="font-family: arial, verdana, arial, arial; font-size: 12px; fill: rgb(42, 63, 95); fill-opacity: 1; white-space: pre;">Game 2a</text></g><g class="xtick"><text text-anchor="start" x="0" y="433" transform="translate(102.5,0) rotate(90,0,427)" style="font-family: arial, verdana, arial, arial; font-size: 12px; fill: rgb(42, 63, 95); fill-opacity: 1; white-space: pre;">Game 2b</text></g><g class="xtick"><text text-anchor="start" x="0" y="433" transform="translate(117.5,0) rotate(90,0,427)" style="font-family: arial, verdana, arial, arial; font-size: 12px; fill: rgb(42, 63, 95); fill-opacity: 1; white-space: pre;">Game 2c</text></g><g class="xtick"><text text-anchor="start" x="0" y="433" transform="translate(132.5,0) rotate(90,0,427)" style="font-family: arial, verdana, arial, arial; font-size: 12px; fill: rgb(42, 63, 95); fill-opacity: 1; white-space: pre;">Game 2d</text></g><g class="xtick"><text text-anchor="start" x="0" y="433" transform="translate(147.5,0) rotate(90,0,427)" style="font-family: arial, verdana, arial, arial; font-size: 12px; fill: rgb(42, 63, 95); fill-opacity: 1; white-space: pre;">Game 3c</text></g><g class="xtick"><text text-anchor="start" x="0" y="433" transform="translate(162.5,0) rotate(90,0,427)" style="font-family: arial, verdana, arial, arial; font-size: 12px; fill: rgb(42, 63, 95); fill-opacity: 1; white-space: pre;">Game 3d</text></g><g class="xtick"><text text-anchor="start" x="0" y="433" transform="translate(177.5,0) rotate(90,0,427)" style="font-family: arial, verdana, arial, arial; font-size: 12px; fill: rgb(42, 63, 95); fill-opacity: 1; white-space: pre;">Game 3</text></g><g class="xtick"><text text-anchor="start" x="0" y="433" transform="translate(192.5,0) rotate(90,0,427)" style="font-family: arial, verdana, arial, arial; font-size: 12px; fill: rgb(42, 63, 95); fill-opacity: 1; white-space: pre;">Game 4a</text></g><g class="xtick"><text text-anchor="start" x="0" y="433" transform="translate(207.5,0) rotate(90,0,427)" style="font-family: arial, verdana, arial, arial; font-size: 12px; fill: rgb(42, 63, 95); fill-opacity: 1; white-space: pre;">Game 4b</text></g><g class="xtick"><text text-anchor="start" x="0" y="433" transform="translate(222.5,0) rotate(90,0,427)" style="font-family: arial, verdana, arial, arial; font-size: 12px; fill: rgb(42, 63, 95); fill-opacity: 1; white-space: pre;">Game 4c</text></g><g class="xtick"><text text-anchor="start" x="0" y="433" transform="translate(237.5,0) rotate(90,0,427)" style="font-family: arial, verdana, arial, arial; font-size: 12px; fill: rgb(42, 63, 95); fill-opacity: 1; white-space: pre;">Game 4d</text></g><g class="xtick"><text text-anchor="start" x="0" y="433" transform="translate(252.5,0) rotate(90,0,427)" style="font-family: arial, verdana, arial, arial; font-size: 12px; fill: rgb(42, 63, 95); fill-opacity: 1; white-space: pre;">Game 4</text></g><g class="xtick"><text text-anchor="start" x="0" y="433" transform="translate(267.5,0) rotate(90,0,427)" style="font-family: arial, verdana, arial, arial; font-size: 12px; fill: rgb(42, 63, 95); fill-opacity: 1; white-space: pre;">Game 5a</text></g><g class="xtick"><text text-anchor="start" x="0" y="433" transform="translate(282.5,0) rotate(90,0,427)" style="font-family: arial, verdana, arial, arial; font-size: 12px; fill: rgb(42, 63, 95); fill-opacity: 1; white-space: pre;">Game 5b</text></g><g class="xtick"><text text-anchor="start" x="0" y="433" transform="translate(297.5,0) rotate(90,0,427)" style="font-family: arial, verdana, arial, arial; font-size: 12px; fill: rgb(42, 63, 95); fill-opacity: 1; white-space: pre;">Game 5c</text></g><g class="xtick"><text text-anchor="start" x="0" y="433" transform="translate(312.5,0) rotate(90,0,427)" style="font-family: arial, verdana, arial, arial; font-size: 12px; fill: rgb(42, 63, 95); fill-opacity: 1; white-space: pre;">Game 5d</text></g><g class="xtick"><text text-anchor="start" x="0" y="433" transform="translate(327.5,0) rotate(90,0,427)" style="font-family: arial, verdana, arial, arial; font-size: 12px; fill: rgb(42, 63, 95); fill-opacity: 1; white-space: pre;">Game 6a</text></g><g class="xtick"><text text-anchor="start" x="0" y="433" transform="translate(342.5,0) rotate(90,0,427)" style="font-family: arial, verdana, arial, arial; font-size: 12px; fill: rgb(42, 63, 95); fill-opacity: 1; white-space: pre;">Game 6b</text></g><g class="xtick"><text text-anchor="start" x="0" y="433" transform="translate(357.5,0) rotate(90,0,427)" style="font-family: arial, verdana, arial, arial; font-size: 12px; fill: rgb(42, 63, 95); fill-opacity: 1; white-space: pre;">Game 6c</text></g><g class="xtick"><text text-anchor="start" x="0" y="433" transform="translate(372.5,0) rotate(90,0,427)" style="font-family: arial, verdana, arial, arial; font-size: 12px; fill: rgb(42, 63, 95); fill-opacity: 1; white-space: pre;">Game 6d</text></g><g class="xtick"><text text-anchor="start" x="0" y="433" transform="translate(387.5,0) rotate(90,0,427)" style="font-family: arial, verdana, arial, arial; font-size: 12px; fill: rgb(42, 63, 95); fill-opacity: 1; white-space: pre;">Game 7a</text></g><g class="xtick"><text text-anchor="start" x="0" y="433" transform="translate(402.5,0) rotate(90,0,427)" style="font-family: arial, verdana, arial, arial; font-size: 12px; fill: rgb(42, 63, 95); fill-opacity: 1; white-space: pre;">Game 7b</text></g><g class="xtick"><text text-anchor="start" x="0" y="433" transform="translate(417.5,0) rotate(90,0,427)" style="font-family: arial, verdana, arial, arial; font-size: 12px; fill: rgb(42, 63, 95); fill-opacity: 1; white-space: pre;">Game 7c</text></g><g class="xtick"><text text-anchor="start" x="0" y="433" transform="translate(432.5,0) rotate(90,0,427)" style="font-family: arial, verdana, arial, arial; font-size: 12px; fill: rgb(42, 63, 95); fill-opacity: 1; white-space: pre;">Game 7d</text></g><g class="xtick"><text text-anchor="start" x="0" y="433" transform="translate(447.5,0) rotate(90,0,427)" style="font-family: arial, verdana, arial, arial; font-size: 12px; fill: rgb(42, 63, 95); fill-opacity: 1; white-space: pre;">Game 8a</text></g><g class="xtick"><text text-anchor="start" x="0" y="433" transform="translate(462.5,0) rotate(90,0,427)" style="font-family: arial, verdana, arial, arial; font-size: 12px; fill: rgb(42, 63, 95); fill-opacity: 1; white-space: pre;">Game 8b</text></g><g class="xtick"><text text-anchor="start" x="0" y="433" transform="translate(477.5,0) rotate(90,0,427)" style="font-family: arial, verdana, arial, arial; font-size: 12px; fill: rgb(42, 63, 95); fill-opacity: 1; white-space: pre;">Game 8c</text></g><g class="xtick"><text text-anchor="start" x="0" y="433" transform="translate(492.5,0) rotate(90,0,427)" style="font-family: arial, verdana, arial, arial; font-size: 12px; fill: rgb(42, 63, 95); fill-opacity: 1; white-space: pre;">Game 8d</text></g><g class="xtick"><text text-anchor="start" x="0" y="433" transform="translate(507.5,0) rotate(90,0,427)" style="font-family: arial, verdana, arial, arial; font-size: 12px; fill: rgb(42, 63, 95); fill-opacity: 1; white-space: pre;">Game 9a</text></g><g class="xtick"><text text-anchor="start" x="0" y="433" transform="translate(522.5,0) rotate(90,0,427)" style="font-family: arial, verdana, arial, arial; font-size: 12px; fill: rgb(42, 63, 95); fill-opacity: 1; white-space: pre;">Game 9b</text></g><g class="xtick"><text text-anchor="start" x="0" y="433" transform="translate(537.5,0) rotate(90,0,427)" style="font-family: arial, verdana, arial, arial; font-size: 12px; fill: rgb(42, 63, 95); fill-opacity: 1; white-space: pre;">Game 9c</text></g><g class="xtick"><text text-anchor="start" x="0" y="433" transform="translate(552.5,0) rotate(90,0,427)" style="font-family: arial, verdana, arial, arial; font-size: 12px; fill: rgb(42, 63, 95); fill-opacity: 1; white-space: pre;">Game 9d</text></g><g class="xtick"><text text-anchor="start" x="0" y="433" transform="translate(567.5,0) rotate(90,0,427)" style="font-family: arial, verdana, arial, arial; font-size: 12px; fill: rgb(42, 63, 95); fill-opacity: 1; white-space: pre;">Game 10a</text></g><g class="xtick"><text text-anchor="start" x="0" y="433" transform="translate(582.5,0) rotate(90,0,427)" style="font-family: arial, verdana, arial, arial; font-size: 12px; fill: rgb(42, 63, 95); fill-opacity: 1; white-space: pre;">Game 10b</text></g><g class="xtick"><text text-anchor="start" x="0" y="433" transform="translate(597.5,0) rotate(90,0,427)" style="font-family: arial, verdana, arial, arial; font-size: 12px; fill: rgb(42, 63, 95); fill-opacity: 1; white-space: pre;">Game 10c</text></g><g class="xtick"><text text-anchor="start" x="0" y="433" transform="translate(612.5,0) rotate(90,0,427)" style="font-family: arial, verdana, arial, arial; font-size: 12px; fill: rgb(42, 63, 95); fill-opacity: 1; white-space: pre;">Game 10d</text></g><g class="xtick"><text text-anchor="start" x="0" y="433" transform="translate(627.5,0) rotate(90,0,427)" style="font-family: arial, verdana, arial, arial; font-size: 12px; fill: rgb(42, 63, 95); fill-opacity: 1; white-space: pre;">Game 11a</text></g><g class="xtick"><text text-anchor="start" x="0" y="433" transform="translate(642.5,0) rotate(90,0,427)" style="font-family: arial, verdana, arial, arial; font-size: 12px; fill: rgb(42, 63, 95); fill-opacity: 1; white-space: pre;">Game 11b</text></g><g class="xtick"><text text-anchor="start" x="0" y="433" transform="translate(657.5,0) rotate(90,0,427)" style="font-family: arial, verdana, arial, arial; font-size: 12px; fill: rgb(42, 63, 95); fill-opacity: 1; white-space: pre;">Game 11c</text></g><g class="xtick"><text text-anchor="start" x="0" y="433" transform="translate(672.5,0) rotate(90,0,427)" style="font-family: arial, verdana, arial, arial; font-size: 12px; fill: rgb(42, 63, 95); fill-opacity: 1; white-space: pre;">Game 11d</text></g><g class="xtick"><text text-anchor="start" x="0" y="433" transform="translate(687.5,0) rotate(90,0,427)" style="font-family: arial, verdana, arial, arial; font-size: 12px; fill: rgb(42, 63, 95); fill-opacity: 1; white-space: pre;">Game 12a</text></g><g class="xtick"><text text-anchor="start" x="0" y="433" transform="translate(702.5,0) rotate(90,0,427)" style="font-family: arial, verdana, arial, arial; font-size: 12px; fill: rgb(42, 63, 95); fill-opacity: 1; white-space: pre;">Game 12b</text></g><g class="xtick"><text text-anchor="start" x="0" y="433" transform="translate(717.5,0) rotate(90,0,427)" style="font-family: arial, verdana, arial, arial; font-size: 12px; fill: rgb(42, 63, 95); fill-opacity: 1; white-space: pre;">Game 12c</text></g><g class="xtick"><text text-anchor="start" x="0" y="433" transform="translate(732.5,0) rotate(90,0,427)" style="font-family: arial, verdana, arial, arial; font-size: 12px; fill: rgb(42, 63, 95); fill-opacity: 1; white-space: pre;">Game 12d</text></g><g class="xtick"><text text-anchor="start" x="0" y="433" transform="translate(747.5,0) rotate(90,0,427)" style="font-family: arial, verdana, arial, arial; font-size: 12px; fill: rgb(42, 63, 95); fill-opacity: 1; white-space: pre;">Game 13c</text></g><g class="xtick"><text text-anchor="start" x="0" y="433" transform="translate(762.5,0) rotate(90,0,427)" style="font-family: arial, verdana, arial, arial; font-size: 12px; fill: rgb(42, 63, 95); fill-opacity: 1; white-space: pre;">Game 13d</text></g><g class="xtick"><text text-anchor="start" x="0" y="433" transform="translate(777.5,0) rotate(90,0,427)" style="font-family: arial, verdana, arial, arial; font-size: 12px; fill: rgb(42, 63, 95); fill-opacity: 1; white-space: pre;">Game 13</text></g><g class="xtick"><text text-anchor="start" x="0" y="433" transform="translate(792.5,0) rotate(90,0,427)" style="font-family: arial, verdana, arial, arial; font-size: 12px; fill: rgb(42, 63, 95); fill-opacity: 1; white-space: pre;">Game 14a</text></g><g class="xtick"><text text-anchor="start" x="0" y="433" transform="translate(807.5,0) rotate(90,0,427)" style="font-family: arial, verdana, arial, arial; font-size: 12px; fill: rgb(42, 63, 95); fill-opacity: 1; white-space: pre;">Game 14b</text></g><g class="xtick"><text text-anchor="start" x="0" y="433" transform="translate(822.5,0) rotate(90,0,427)" style="font-family: arial, verdana, arial, arial; font-size: 12px; fill: rgb(42, 63, 95); fill-opacity: 1; white-space: pre;">Game 14c</text></g><g class="xtick"><text text-anchor="start" x="0" y="433" transform="translate(837.5,0) rotate(90,0,427)" style="font-family: arial, verdana, arial, arial; font-size: 12px; fill: rgb(42, 63, 95); fill-opacity: 1; white-space: pre;">Game 14d</text></g><g class="xtick"><text text-anchor="start" x="0" y="433" transform="translate(852.5,0) rotate(90,0,427)" style="font-family: arial, verdana, arial, arial; font-size: 12px; fill: rgb(42, 63, 95); fill-opacity: 1; white-space: pre;">Game 14</text></g><g class="xtick"><text text-anchor="start" x="0" y="433" transform="translate(867.5,0) rotate(90,0,427)" style="font-family: arial, verdana, arial, arial; font-size: 12px; fill: rgb(42, 63, 95); fill-opacity: 1; white-space: pre;">Game 15a</text></g><g class="xtick"><text text-anchor="start" x="0" y="433" transform="translate(882.5,0) rotate(90,0,427)" style="font-family: arial, verdana, arial, arial; font-size: 12px; fill: rgb(42, 63, 95); fill-opacity: 1; white-space: pre;">Game 15b</text></g><g class="xtick"><text text-anchor="start" x="0" y="433" transform="translate(897.5,0) rotate(90,0,427)" style="font-family: arial, verdana, arial, arial; font-size: 12px; fill: rgb(42, 63, 95); fill-opacity: 1; white-space: pre;">Game 15c</text></g><g class="xtick"><text text-anchor="start" x="0" y="433" transform="translate(912.5,0) rotate(90,0,427)" style="font-family: arial, verdana, arial, arial; font-size: 12px; fill: rgb(42, 63, 95); fill-opacity: 1; white-space: pre;">Game 15d</text></g></g><g class="yaxislayer-above"><g class="ytick"><text text-anchor="end" x="79" y="4.199999999999999" transform="translate(0,375.91)" style="font-family: arial, verdana, arial, arial; font-size: 12px; fill: rgb(42, 63, 95); fill-opacity: 1; white-space: pre;">0.3</text></g><g class="ytick"><text text-anchor="end" x="79" y="4.199999999999999" transform="translate(0,322.77)" style="font-family: arial, verdana, arial, arial; font-size: 12px; fill: rgb(42, 63, 95); fill-opacity: 1; white-space: pre;">0.4</text></g><g class="ytick"><text text-anchor="end" x="79" y="4.199999999999999" transform="translate(0,281.55)" style="font-family: arial, verdana, arial, arial; font-size: 12px; fill: rgb(42, 63, 95); fill-opacity: 1; white-space: pre;">0.5</text></g><g class="ytick"><text text-anchor="end" x="79" y="4.199999999999999" transform="translate(0,247.88)" style="font-family: arial, verdana, arial, arial; font-size: 12px; fill: rgb(42, 63, 95); fill-opacity: 1; white-space: pre;">0.6</text></g><g class="ytick"><text text-anchor="end" x="79" y="4.199999999999999" transform="translate(0,219.41)" style="font-family: arial, verdana, arial, arial; font-size: 12px; fill: rgb(42, 63, 95); fill-opacity: 1; white-space: pre;">0.7</text></g><g class="ytick"><text text-anchor="end" x="79" y="4.199999999999999" transform="translate(0,194.74)" style="font-family: arial, verdana, arial, arial; font-size: 12px; fill: rgb(42, 63, 95); fill-opacity: 1; white-space: pre;">0.8</text></g><g class="ytick"><text text-anchor="end" x="79" y="4.199999999999999" transform="translate(0,172.99)" style="font-family: arial, verdana, arial, arial; font-size: 12px; fill: rgb(42, 63, 95); fill-opacity: 1; white-space: pre;">0.9</text></g><g class="ytick"><text text-anchor="end" x="79" y="4.199999999999999" transform="translate(0,153.53)" style="font-family: arial, verdana, arial, arial; font-size: 12px; fill: rgb(42, 63, 95); fill-opacity: 1; white-space: pre;">1</text></g><g class="ytick"><text text-anchor="end" x="79" y="4.199999999999999" transform="translate(0,135.92000000000002)" style="font-family: arial, verdana, arial, arial; font-size: 12px; fill: rgb(42, 63, 95); fill-opacity: 1; white-space: pre;">1.1</text></g><g class="ytick"><text text-anchor="end" x="79" y="4.199999999999999" transform="translate(0,119.85)" style="font-family: arial, verdana, arial, arial; font-size: 12px; fill: rgb(42, 63, 95); fill-opacity: 1; white-space: pre;">1.2</text></g><g class="ytick"><text text-anchor="end" x="79" y="4.199999999999999" transform="translate(0,105.07)" style="font-family: arial, verdana, arial, arial; font-size: 12px; fill: rgb(42, 63, 95); fill-opacity: 1; white-space: pre;">1.3</text></g></g><g class="overaxes-above"/></g></g><g class="polarlayer"/><g class="ternarylayer"/><g class="geolayer"/><g class="funnelarealayer"/><g class="pielayer"/><g class="sunburstlayer"/><g class="glimages"/><defs id="topdefs-259420"><g class="clips"/><clipPath id="legend259420"><rect width="177" height="48" x="2" y="2"/></clipPath></defs><g class="layer-above"><g class="imagelayer"/><g class="shapelayer"/></g><g class="infolayer"><g class="legend" pointer-events="all" transform="translate(668, 100)"><rect class="bg" shape-rendering="crispEdges" width="179" height="50" x="1" y="1" style="stroke: rgb(0, 0, 0); stroke-opacity: 1; fill: rgb(176, 196, 222); fill-opacity: 1; stroke-width: 2px;"/><g class="scrollbox" transform="translate(0, 0)" clip-path="url('#legend259420')"><g class="groups"><g class="traces" transform="translate(2, 16.5)" style="opacity: 1;"><text class="legendtext user-select-none" text-anchor="start" x="40" y="4.680000000000001" style="font-family: arial; font-size: 12px; fill: rgb(0, 0, 0); fill-opacity: 1; white-space: pre;">Zlnk product based</text><g class="layers" style="opacity: 1;"><g class="legendfill"/><g class="legendlines"><path class="js-line" d="M5,0h30" style="fill: none; stroke: rgb(31, 119, 180); stroke-opacity: 1; stroke-width: 2px;"/></g><g class="legendsymbols"><g class="legendpoints"/></g></g><rect class="legendtoggle" pointer-events="all" x="0" y="-9.5" width="221" height="19" style="cursor: pointer; fill: rgb(0, 0, 0); fill-opacity: 0;"/></g><g class="traces" transform="translate(2, 35.5)" style="opacity: 1;"><text class="legendtext user-select-none" text-anchor="start" x="40" y="4.680000000000001" style="font-family: arial; font-size: 12px; fill: rgb(0, 0, 0); fill-opacity: 1; white-space: pre;">Zlnk local product based</text><g class="layers" style="opacity: 1;"><g class="legendfill"/><g class="legendlines"/><g class="legendsymbols"><g class="legendpoints"><path class="legendundefined" d="M6,6H-6V-6H6Z" transform="translate(20,0)" style="stroke-width: 0.5px; fill: url(#pattern2); fill-opacity: 1; stroke: rgb(229, 236, 246); stroke-opacity: 1;"/></g></g></g><rect class="legendtoggle" pointer-events="all" x="0" y="-9.5" width="221" height="19" style="cursor: pointer; fill: rgb(0, 0, 0); fill-opacity: 0;"/></g></g></g><rect class="scrollbar" rx="20" ry="3" width="0" height="0" x="0" y="0" style="fill: rgb(128, 139, 164); fill-opacity: 1;"/></g><g class="g-gtitle"/><g class="g-xtitle"/><g class="g-ytitle"/></g></svg>
