<svg class="main-svg" xmlns="http://www.w3.org/2000/svg" xmlns:xlink="http://www.w3.org/1999/xlink" width="1000" height="500" viewBox="0 0 1000 500">
<defs>
	<pattern id="pattern0" patternUnits="userSpaceOnUse" width="10" height="10">
		<rect x="0" y="0" width="10" height="10" style="fill: rgb(148, 103, 190)"/>
		<line x1="0" y1="0" x2="10" y2="10" style="stroke: white;stroke-width:2"/>
		<line x1="-1" x2="1" y1="9" y2="11" style="stroke: white;stroke-width:2"/>
		<line x1="9" x2="11" y1="-1" y2="1" style="stroke: white;stroke-width:2"/>
	</pattern>
	<pattern id="pattern1" patternUnits="userSpaceOnUse" width="10" height="10">
		<rect x="0" y="0" width="10" height="10" style="fill: rgb(255, 127, 15)"/>
		<line x1="0" y1="0" x2="10" y2="10" style="stroke: white;stroke-width:2"/>
		<line x1="-1" x2="1" y1="9" y2="11" style="stroke: white;stroke-width:2"/>
		<line x1="9" x2="11" y1="-1" y2="1" style="stroke: white;stroke-width:2"/>
	</pattern>
	<pattern id="pattern2" patternUnits="userSpaceOnUse" width="10" height="10">
		<rect x="0" y="0" width="10" height="10" style="fill: rgb(31, 119, 181)"/>
		<line x1="0" y1="0" x2="10" y2="10" style="stroke: white;stroke-width:2"/>
		<line x1="-1" x2="1" y1="9" y2="11" style="stroke: white;stroke-width:2"/>
		<line x1="9" x2="11" y1="-1" y2="1" style="stroke: white;stroke-width:2"/>
	</pattern>
	<pattern id="pattern3" patternUnits="userSpaceOnUse" width="10" height="10">
		<rect x="0" y="0" width="10" height="10" style="fill: rgb(214, 39, 41)"/>
		<line x1="0" y1="0" x2="10" y2="10" style="stroke: white;stroke-width:2"/>
		<line x1="-1" x2="1" y1="9" y2="11" style="stroke: white;stroke-width:2"/>
		<line x1="9" x2="11" y1="-1" y2="1" style="stroke: white;stroke-width:2"/>
	</pattern>
	<pattern id="pattern4" patternUnits="userSpaceOnUse" width="10" height="10">
		<rect x="0" y="0" width="10" height="10" style="fill: rgb(44, 160, 45)"/>
		<line x1="0" y1="0" x2="10" y2="10" style="stroke: white;stroke-width:2"/>
		<line x1="-1" x2="1" y1="9" y2="11" style="stroke: white;stroke-width:2"/>
		<line x1="9" x2="11" y1="-1" y2="1" style="stroke: white;stroke-width:2"/>
	</pattern></defs><rect x="0" y="0" width="1000" height="500" style="fill: rgb(255, 255, 255); fill-opacity: 1;"/><defs id="defs-f2b92f"><g class="clips"><clipPath id="clipf2b92fxyplot" class="plotclip"><rect width="840" height="320"/></clipPath><clipPath class="axesclip" id="clipf2b92fx"><rect x="80" y="0" width="840" height="500"/></clipPath><clipPath class="axesclip" id="clipf2b92fy"><rect x="0" y="100" width="1000" height="320"/></clipPath><clipPath class="axesclip" id="clipf2b92fxy"><rect x="80" y="100" width="840" height="320"/></clipPath></g><g class="gradients"/></defs><g class="bglayer"><rect class="bg" x="80" y="100" width="840" height="320" style="fill: rgb(229, 236, 246); fill-opacity: 1; stroke-width: 0;"/></g><g class="layer-below"><g class="imagelayer"/><g class="shapelayer"/></g><g class="cartesianlayer"><g class="subplot xy"><g class="layer-subplot"><g class="shapelayer"/><g class="imagelayer"/></g><g class="gridlayer"><g class="x"/><g class="y"><path class="ygrid crisp" transform="translate(0,401.38)" d="M80,0h840" style="stroke: rgb(255, 255, 255); stroke-opacity: 1; stroke-width: 1px;"/><path class="ygrid crisp" transform="translate(0,379)" d="M80,0h840" style="stroke: rgb(255, 255, 255); stroke-opacity: 1; stroke-width: 1px;"/><path class="ygrid crisp" transform="translate(0,356.63)" d="M80,0h840" style="stroke: rgb(255, 255, 255); stroke-opacity: 1; stroke-width: 1px;"/><path class="ygrid crisp" transform="translate(0,327.06)" d="M80,0h840" style="stroke: rgb(255, 255, 255); stroke-opacity: 1; stroke-width: 1px;"/><path class="ygrid crisp" transform="translate(0,304.69)" d="M80,0h840" style="stroke: rgb(255, 255, 255); stroke-opacity: 1; stroke-width: 1px;"/><path class="ygrid crisp" transform="translate(0,282.32)" d="M80,0h840" style="stroke: rgb(255, 255, 255); stroke-opacity: 1; stroke-width: 1px;"/><path class="ygrid crisp" transform="translate(0,252.75)" d="M80,0h840" style="stroke: rgb(255, 255, 255); stroke-opacity: 1; stroke-width: 1px;"/><path class="ygrid crisp" transform="translate(0,230.38)" d="M80,0h840" style="stroke: rgb(255, 255, 255); stroke-opacity: 1; stroke-width: 1px;"/><path class="ygrid crisp" transform="translate(0,208.01)" d="M80,0h840" style="stroke: rgb(255, 255, 255); stroke-opacity: 1; stroke-width: 1px;"/><path class="ygrid crisp" transform="translate(0,178.43)" d="M80,0h840" style="stroke: rgb(255, 255, 255); stroke-opacity: 1; stroke-width: 1px;"/><path class="ygrid crisp" transform="translate(0,156.06)" d="M80,0h840" style="stroke: rgb(255, 255, 255); stroke-opacity: 1; stroke-width: 1px;"/><path class="ygrid crisp" transform="translate(0,133.69)" d="M80,0h840" style="stroke: rgb(255, 255, 255); stroke-opacity: 1; stroke-width: 1px;"/><path class="ygrid crisp" transform="translate(0,104.12)" d="M80,0h840" style="stroke: rgb(255, 255, 255); stroke-opacity: 1; stroke-width: 1px;"/></g></g><g class="zerolinelayer"/><path class="xlines-below"/><path class="ylines-below"/><g class="overlines-below"/><g class="xaxislayer-below"/><g class="yaxislayer-below"/><g class="overaxes-below"/><g class="plot" transform="translate(80, 100)" clip-path="url('#clipf2b92fxyplot')"><g class="barlayer mlayer"><g class="trace bars" style="opacity: 1;"><g class="points"><g class="point"><path d="M1.68,3360V166.66H15.12V3360Z" style="vector-effect: non-scaling-stroke; opacity: 1; stroke-width: 0.5px; fill: url(#pattern1); fill-opacity: 1; stroke: rgb(229, 236, 246); stroke-opacity: 1;"/></g><g class="point"><path d="M18.48,3360V210.97H31.92V3360Z" style="vector-effect: non-scaling-stroke; opacity: 1; stroke-width: 0.5px; fill: url(#pattern1); fill-opacity: 1; stroke: rgb(229, 236, 246); stroke-opacity: 1;"/></g><g class="point"><path d="M35.28,3360V82.21H48.72V3360Z" style="vector-effect: non-scaling-stroke; opacity: 1; stroke-width: 0.5px; fill: url(#pattern1); fill-opacity: 1; stroke: rgb(229, 236, 246); stroke-opacity: 1;"/></g><g class="point"><path d="M52.08,3360V208.71H65.52V3360Z" style="vector-effect: non-scaling-stroke; opacity: 1; stroke-width: 0.5px; fill: url(#pattern1); fill-opacity: 1; stroke: rgb(229, 236, 246); stroke-opacity: 1;"/></g><g class="point"><path d="M68.88,3360V202.31H82.32V3360Z" style="vector-effect: non-scaling-stroke; opacity: 1; stroke-width: 0.5px; fill: url(#pattern1); fill-opacity: 1; stroke: rgb(229, 236, 246); stroke-opacity: 1;"/></g><g class="point"><path d="M85.68,3360V161.05H99.12V3360Z" style="vector-effect: non-scaling-stroke; opacity: 1; stroke-width: 0.5px; fill: url(#pattern1); fill-opacity: 1; stroke: rgb(229, 236, 246); stroke-opacity: 1;"/></g><g class="point"><path d="M102.48,3360V189.31H115.92V3360Z" style="vector-effect: non-scaling-stroke; opacity: 1; stroke-width: 0.5px; fill: url(#pattern1); fill-opacity: 1; stroke: rgb(229, 236, 246); stroke-opacity: 1;"/></g><g class="point"><path d="M119.28,3360V131.92H132.72V3360Z" style="vector-effect: non-scaling-stroke; opacity: 1; stroke-width: 0.5px; fill: url(#pattern1); fill-opacity: 1; stroke: rgb(229, 236, 246); stroke-opacity: 1;"/></g><g class="point"><path d="M136.08,3360V195.9H149.52V3360Z" style="vector-effect: non-scaling-stroke; opacity: 1; stroke-width: 0.5px; fill: url(#pattern1); fill-opacity: 1; stroke: rgb(229, 236, 246); stroke-opacity: 1;"/></g><g class="point"><path d="M152.88,3360V176.64H166.32V3360Z" style="vector-effect: non-scaling-stroke; opacity: 1; stroke-width: 0.5px; fill: url(#pattern1); fill-opacity: 1; stroke: rgb(229, 236, 246); stroke-opacity: 1;"/></g><g class="point"><path d="M169.68,3360V154.19H183.12V3360Z" style="vector-effect: non-scaling-stroke; opacity: 1; stroke-width: 0.5px; fill: url(#pattern1); fill-opacity: 1; stroke: rgb(229, 236, 246); stroke-opacity: 1;"/></g><g class="point"><path d="M186.48,3360V130.84H199.92V3360Z" style="vector-effect: non-scaling-stroke; opacity: 1; stroke-width: 0.5px; fill: url(#pattern1); fill-opacity: 1; stroke: rgb(229, 236, 246); stroke-opacity: 1;"/></g><g class="point"><path d="M203.28,3360V181.33H216.72V3360Z" style="vector-effect: non-scaling-stroke; opacity: 1; stroke-width: 0.5px; fill: url(#pattern1); fill-opacity: 1; stroke: rgb(229, 236, 246); stroke-opacity: 1;"/></g><g class="point"><path d="M220.08,3360V145.39H233.52V3360Z" style="vector-effect: non-scaling-stroke; opacity: 1; stroke-width: 0.5px; fill: url(#pattern1); fill-opacity: 1; stroke: rgb(229, 236, 246); stroke-opacity: 1;"/></g><g class="point"><path d="M236.88,3360V183.58H250.32V3360Z" style="vector-effect: non-scaling-stroke; opacity: 1; stroke-width: 0.5px; fill: url(#pattern1); fill-opacity: 1; stroke: rgb(229, 236, 246); stroke-opacity: 1;"/></g><g class="point"><path d="M253.68,3360V197.57H267.12V3360Z" style="vector-effect: non-scaling-stroke; opacity: 1; stroke-width: 0.5px; fill: url(#pattern1); fill-opacity: 1; stroke: rgb(229, 236, 246); stroke-opacity: 1;"/></g><g class="point"><path d="M270.48,3360V158.47H283.92V3360Z" style="vector-effect: non-scaling-stroke; opacity: 1; stroke-width: 0.5px; fill: url(#pattern1); fill-opacity: 1; stroke: rgb(229, 236, 246); stroke-opacity: 1;"/></g><g class="point"><path d="M287.28,3360V185.1H300.72V3360Z" style="vector-effect: non-scaling-stroke; opacity: 1; stroke-width: 0.5px; fill: url(#pattern1); fill-opacity: 1; stroke: rgb(229, 236, 246); stroke-opacity: 1;"/></g><g class="point"><path d="M304.08,3360V161.33H317.52V3360Z" style="vector-effect: non-scaling-stroke; opacity: 1; stroke-width: 0.5px; fill: url(#pattern1); fill-opacity: 1; stroke: rgb(229, 236, 246); stroke-opacity: 1;"/></g><g class="point"><path d="M320.88,3360V88.84H334.32V3360Z" style="vector-effect: non-scaling-stroke; opacity: 1; stroke-width: 0.5px; fill: url(#pattern1); fill-opacity: 1; stroke: rgb(229, 236, 246); stroke-opacity: 1;"/></g><g class="point"><path d="M337.68,3360V129.59H351.12V3360Z" style="vector-effect: non-scaling-stroke; opacity: 1; stroke-width: 0.5px; fill: url(#pattern1); fill-opacity: 1; stroke: rgb(229, 236, 246); stroke-opacity: 1;"/></g><g class="point"><path d="M354.48,3360V147.66H367.92V3360Z" style="vector-effect: non-scaling-stroke; opacity: 1; stroke-width: 0.5px; fill: url(#pattern1); fill-opacity: 1; stroke: rgb(229, 236, 246); stroke-opacity: 1;"/></g><g class="point"><path d="M371.28,3360V188.62H384.72V3360Z" style="vector-effect: non-scaling-stroke; opacity: 1; stroke-width: 0.5px; fill: url(#pattern1); fill-opacity: 1; stroke: rgb(229, 236, 246); stroke-opacity: 1;"/></g><g class="point"><path d="M388.08,3360V149.56H401.52V3360Z" style="vector-effect: non-scaling-stroke; opacity: 1; stroke-width: 0.5px; fill: url(#pattern1); fill-opacity: 1; stroke: rgb(229, 236, 246); stroke-opacity: 1;"/></g><g class="point"><path d="M404.88,3360V101.97H418.32V3360Z" style="vector-effect: non-scaling-stroke; opacity: 1; stroke-width: 0.5px; fill: url(#pattern1); fill-opacity: 1; stroke: rgb(229, 236, 246); stroke-opacity: 1;"/></g><g class="point"><path d="M421.68,3360V113.51H435.12V3360Z" style="vector-effect: non-scaling-stroke; opacity: 1; stroke-width: 0.5px; fill: url(#pattern1); fill-opacity: 1; stroke: rgb(229, 236, 246); stroke-opacity: 1;"/></g><g class="point"><path d="M438.48,3360V16H451.92V3360Z" style="vector-effect: non-scaling-stroke; opacity: 1; stroke-width: 0.5px; fill: url(#pattern1); fill-opacity: 1; stroke: rgb(229, 236, 246); stroke-opacity: 1;"/></g><g class="point"><path d="M455.28,3360V107.55H468.72V3360Z" style="vector-effect: non-scaling-stroke; opacity: 1; stroke-width: 0.5px; fill: url(#pattern1); fill-opacity: 1; stroke: rgb(229, 236, 246); stroke-opacity: 1;"/></g><g class="point"><path d="M472.08,3360V181.07H485.52V3360Z" style="vector-effect: non-scaling-stroke; opacity: 1; stroke-width: 0.5px; fill: url(#pattern1); fill-opacity: 1; stroke: rgb(229, 236, 246); stroke-opacity: 1;"/></g><g class="point"><path d="M488.88,3360V141.96H502.32V3360Z" style="vector-effect: non-scaling-stroke; opacity: 1; stroke-width: 0.5px; fill: url(#pattern1); fill-opacity: 1; stroke: rgb(229, 236, 246); stroke-opacity: 1;"/></g><g class="point"><path d="M505.68,3360V132.59H519.12V3360Z" style="vector-effect: non-scaling-stroke; opacity: 1; stroke-width: 0.5px; fill: url(#pattern1); fill-opacity: 1; stroke: rgb(229, 236, 246); stroke-opacity: 1;"/></g><g class="point"><path d="M522.48,3360V220.12H535.92V3360Z" style="vector-effect: non-scaling-stroke; opacity: 1; stroke-width: 0.5px; fill: url(#pattern1); fill-opacity: 1; stroke: rgb(229, 236, 246); stroke-opacity: 1;"/></g><g class="point"><path d="M539.28,3360V106.85H552.72V3360Z" style="vector-effect: non-scaling-stroke; opacity: 1; stroke-width: 0.5px; fill: url(#pattern1); fill-opacity: 1; stroke: rgb(229, 236, 246); stroke-opacity: 1;"/></g><g class="point"><path d="M556.08,3360V109.55H569.52V3360Z" style="vector-effect: non-scaling-stroke; opacity: 1; stroke-width: 0.5px; fill: url(#pattern1); fill-opacity: 1; stroke: rgb(229, 236, 246); stroke-opacity: 1;"/></g><g class="point"><path d="M572.88,3360V219.78H586.32V3360Z" style="vector-effect: non-scaling-stroke; opacity: 1; stroke-width: 0.5px; fill: url(#pattern1); fill-opacity: 1; stroke: rgb(229, 236, 246); stroke-opacity: 1;"/></g><g class="point"><path d="M589.68,3360V86.69H603.12V3360Z" style="vector-effect: non-scaling-stroke; opacity: 1; stroke-width: 0.5px; fill: url(#pattern1); fill-opacity: 1; stroke: rgb(229, 236, 246); stroke-opacity: 1;"/></g><g class="point"><path d="M606.48,3360V89.43H619.92V3360Z" style="vector-effect: non-scaling-stroke; opacity: 1; stroke-width: 0.5px; fill: url(#pattern1); fill-opacity: 1; stroke: rgb(229, 236, 246); stroke-opacity: 1;"/></g><g class="point"><path d="M623.28,3360V304H636.72V3360Z" style="vector-effect: non-scaling-stroke; opacity: 1; stroke-width: 0.5px; fill: url(#pattern1); fill-opacity: 1; stroke: rgb(229, 236, 246); stroke-opacity: 1;"/></g><g class="point"><path d="M640.08,3360V95.83H653.52V3360Z" style="vector-effect: non-scaling-stroke; opacity: 1; stroke-width: 0.5px; fill: url(#pattern1); fill-opacity: 1; stroke: rgb(229, 236, 246); stroke-opacity: 1;"/></g><g class="point"><path d="M656.88,3360V257.29H670.32V3360Z" style="vector-effect: non-scaling-stroke; opacity: 1; stroke-width: 0.5px; fill: url(#pattern1); fill-opacity: 1; stroke: rgb(229, 236, 246); stroke-opacity: 1;"/></g><g class="point"><path d="M673.68,3360V234.37H687.12V3360Z" style="vector-effect: non-scaling-stroke; opacity: 1; stroke-width: 0.5px; fill: url(#pattern1); fill-opacity: 1; stroke: rgb(229, 236, 246); stroke-opacity: 1;"/></g><g class="point"><path d="M690.48,3360V238.08H703.92V3360Z" style="vector-effect: non-scaling-stroke; opacity: 1; stroke-width: 0.5px; fill: url(#pattern1); fill-opacity: 1; stroke: rgb(229, 236, 246); stroke-opacity: 1;"/></g><g class="point"><path d="M707.28,3360V275.55H720.72V3360Z" style="vector-effect: non-scaling-stroke; opacity: 1; stroke-width: 0.5px; fill: url(#pattern1); fill-opacity: 1; stroke: rgb(229, 236, 246); stroke-opacity: 1;"/></g><g class="point"><path d="M724.08,3360V138.28H737.52V3360Z" style="vector-effect: non-scaling-stroke; opacity: 1; stroke-width: 0.5px; fill: url(#pattern1); fill-opacity: 1; stroke: rgb(229, 236, 246); stroke-opacity: 1;"/></g><g class="point"><path d="M740.88,3360V234.29H754.32V3360Z" style="vector-effect: non-scaling-stroke; opacity: 1; stroke-width: 0.5px; fill: url(#pattern1); fill-opacity: 1; stroke: rgb(229, 236, 246); stroke-opacity: 1;"/></g><g class="point"><path d="M757.68,3360V237.39H771.12V3360Z" style="vector-effect: non-scaling-stroke; opacity: 1; stroke-width: 0.5px; fill: url(#pattern1); fill-opacity: 1; stroke: rgb(229, 236, 246); stroke-opacity: 1;"/></g><g class="point"><path d="M774.48,3360V216.38H787.92V3360Z" style="vector-effect: non-scaling-stroke; opacity: 1; stroke-width: 0.5px; fill: url(#pattern1); fill-opacity: 1; stroke: rgb(229, 236, 246); stroke-opacity: 1;"/></g><g class="point"><path d="M791.28,3360V155.37H804.72V3360Z" style="vector-effect: non-scaling-stroke; opacity: 1; stroke-width: 0.5px; fill: url(#pattern1); fill-opacity: 1; stroke: rgb(229, 236, 246); stroke-opacity: 1;"/></g><g class="point"><path d="M808.08,3360V222.84H821.52V3360Z" style="vector-effect: non-scaling-stroke; opacity: 1; stroke-width: 0.5px; fill: url(#pattern1); fill-opacity: 1; stroke: rgb(229, 236, 246); stroke-opacity: 1;"/></g><g class="point"><path d="M824.88,3360V63.03H838.32V3360Z" style="vector-effect: non-scaling-stroke; opacity: 1; stroke-width: 0.5px; fill: url(#pattern1); fill-opacity: 1; stroke: rgb(229, 236, 246); stroke-opacity: 1;"/></g></g></g></g><g class="scatterlayer mlayer"><g class="trace scatter trace7c0919" style="stroke-miterlimit: 2; opacity: 1;"><g class="fills"/><g class="errorbars"/><g class="lines"><path class="js-line" d="M8.4,204.69L831.6,204.69" style="vector-effect: non-scaling-stroke; fill: none; stroke: rgb(44, 160, 44); stroke-opacity: 1; stroke-width: 2px; opacity: 1;"/></g><g class="points"/><g class="text"/></g></g></g><g class="overplot"/><path class="xlines-above crisp" d="M0,0" style="fill: none;"/><path class="ylines-above crisp" d="M0,0" style="fill: none;"/><g class="overlines-above"/><g class="xaxislayer-above"><g class="xtick"><text text-anchor="start" x="0" y="433" transform="translate(88.4,0) rotate(90,0,427)" style="font-family: arial, verdana, arial, arial; font-size: 12px; fill: rgb(42, 63, 95); fill-opacity: 1; white-space: pre;">Game 50</text></g><g class="xtick"><text text-anchor="start" x="0" y="433" transform="translate(105.2,0) rotate(90,0,427)" style="font-family: arial, verdana, arial, arial; font-size: 12px; fill: rgb(42, 63, 95); fill-opacity: 1; white-space: pre;">Game 51</text></g><g class="xtick"><text text-anchor="start" x="0" y="433" transform="translate(122,0) rotate(90,0,427)" style="font-family: arial, verdana, arial, arial; font-size: 12px; fill: rgb(42, 63, 95); fill-opacity: 1; white-space: pre;">Game 52</text></g><g class="xtick"><text text-anchor="start" x="0" y="433" transform="translate(138.8,0) rotate(90,0,427)" style="font-family: arial, verdana, arial, arial; font-size: 12px; fill: rgb(42, 63, 95); fill-opacity: 1; white-space: pre;">Game 53</text></g><g class="xtick"><text text-anchor="start" x="0" y="433" transform="translate(155.6,0) rotate(90,0,427)" style="font-family: arial, verdana, arial, arial; font-size: 12px; fill: rgb(42, 63, 95); fill-opacity: 1; white-space: pre;">Game 54</text></g><g class="xtick"><text text-anchor="start" x="0" y="433" transform="translate(172.4,0) rotate(90,0,427)" style="font-family: arial, verdana, arial, arial; font-size: 12px; fill: rgb(42, 63, 95); fill-opacity: 1; white-space: pre;">Game 55</text></g><g class="xtick"><text text-anchor="start" x="0" y="433" transform="translate(189.2,0) rotate(90,0,427)" style="font-family: arial, verdana, arial, arial; font-size: 12px; fill: rgb(42, 63, 95); fill-opacity: 1; white-space: pre;">Game 56</text></g><g class="xtick"><text text-anchor="start" x="0" y="433" transform="translate(206,0) rotate(90,0,427)" style="font-family: arial, verdana, arial, arial; font-size: 12px; fill: rgb(42, 63, 95); fill-opacity: 1; white-space: pre;">Game 57</text></g><g class="xtick"><text text-anchor="start" x="0" y="433" transform="translate(222.8,0) rotate(90,0,427)" style="font-family: arial, verdana, arial, arial; font-size: 12px; fill: rgb(42, 63, 95); fill-opacity: 1; white-space: pre;">Game 58</text></g><g class="xtick"><text text-anchor="start" x="0" y="433" transform="translate(239.6,0) rotate(90,0,427)" style="font-family: arial, verdana, arial, arial; font-size: 12px; fill: rgb(42, 63, 95); fill-opacity: 1; white-space: pre;">Game 59</text></g><g class="xtick"><text text-anchor="start" x="0" y="433" transform="translate(256.4,0) rotate(90,0,427)" style="font-family: arial, verdana, arial, arial; font-size: 12px; fill: rgb(42, 63, 95); fill-opacity: 1; white-space: pre;">Game 60</text></g><g class="xtick"><text text-anchor="start" x="0" y="433" transform="translate(273.2,0) rotate(90,0,427)" style="font-family: arial, verdana, arial, arial; font-size: 12px; fill: rgb(42, 63, 95); fill-opacity: 1; white-space: pre;">Game 61</text></g><g class="xtick"><text text-anchor="start" x="0" y="433" transform="translate(290,0) rotate(90,0,427)" style="font-family: arial, verdana, arial, arial; font-size: 12px; fill: rgb(42, 63, 95); fill-opacity: 1; white-space: pre;">Game 62</text></g><g class="xtick"><text text-anchor="start" x="0" y="433" transform="translate(306.8,0) rotate(90,0,427)" style="font-family: arial, verdana, arial, arial; font-size: 12px; fill: rgb(42, 63, 95); fill-opacity: 1; white-space: pre;">Game 63</text></g><g class="xtick"><text text-anchor="start" x="0" y="433" transform="translate(323.6,0) rotate(90,0,427)" style="font-family: arial, verdana, arial, arial; font-size: 12px; fill: rgb(42, 63, 95); fill-opacity: 1; white-space: pre;">Game 64</text></g><g class="xtick"><text text-anchor="start" x="0" y="433" transform="translate(340.4,0) rotate(90,0,427)" style="font-family: arial, verdana, arial, arial; font-size: 12px; fill: rgb(42, 63, 95); fill-opacity: 1; white-space: pre;">Game 65</text></g><g class="xtick"><text text-anchor="start" x="0" y="433" transform="translate(357.2,0) rotate(90,0,427)" style="font-family: arial, verdana, arial, arial; font-size: 12px; fill: rgb(42, 63, 95); fill-opacity: 1; white-space: pre;">Game 66</text></g><g class="xtick"><text text-anchor="start" x="0" y="433" transform="translate(374,0) rotate(90,0,427)" style="font-family: arial, verdana, arial, arial; font-size: 12px; fill: rgb(42, 63, 95); fill-opacity: 1; white-space: pre;">Game 67</text></g><g class="xtick"><text text-anchor="start" x="0" y="433" transform="translate(390.8,0) rotate(90,0,427)" style="font-family: arial, verdana, arial, arial; font-size: 12px; fill: rgb(42, 63, 95); fill-opacity: 1; white-space: pre;">Game 68</text></g><g class="xtick"><text text-anchor="start" x="0" y="433" transform="translate(407.6,0) rotate(90,0,427)" style="font-family: arial, verdana, arial, arial; font-size: 12px; fill: rgb(42, 63, 95); fill-opacity: 1; white-space: pre;">Game 69</text></g><g class="xtick"><text text-anchor="start" x="0" y="433" transform="translate(424.4,0) rotate(90,0,427)" style="font-family: arial, verdana, arial, arial; font-size: 12px; fill: rgb(42, 63, 95); fill-opacity: 1; white-space: pre;">Game 70</text></g><g class="xtick"><text text-anchor="start" x="0" y="433" transform="translate(441.2,0) rotate(90,0,427)" style="font-family: arial, verdana, arial, arial; font-size: 12px; fill: rgb(42, 63, 95); fill-opacity: 1; white-space: pre;">Game 71</text></g><g class="xtick"><text text-anchor="start" x="0" y="433" transform="translate(458,0) rotate(90,0,427)" style="font-family: arial, verdana, arial, arial; font-size: 12px; fill: rgb(42, 63, 95); fill-opacity: 1; white-space: pre;">Game 72</text></g><g class="xtick"><text text-anchor="start" x="0" y="433" transform="translate(474.8,0) rotate(90,0,427)" style="font-family: arial, verdana, arial, arial; font-size: 12px; fill: rgb(42, 63, 95); fill-opacity: 1; white-space: pre;">Game 73</text></g><g class="xtick"><text text-anchor="start" x="0" y="433" transform="translate(491.6,0) rotate(90,0,427)" style="font-family: arial, verdana, arial, arial; font-size: 12px; fill: rgb(42, 63, 95); fill-opacity: 1; white-space: pre;">Game 74</text></g><g class="xtick"><text text-anchor="start" x="0" y="433" transform="translate(508.4,0) rotate(90,0,427)" style="font-family: arial, verdana, arial, arial; font-size: 12px; fill: rgb(42, 63, 95); fill-opacity: 1; white-space: pre;">Game 75</text></g><g class="xtick"><text text-anchor="start" x="0" y="433" transform="translate(525.2,0) rotate(90,0,427)" style="font-family: arial, verdana, arial, arial; font-size: 12px; fill: rgb(42, 63, 95); fill-opacity: 1; white-space: pre;">Game 76</text></g><g class="xtick"><text text-anchor="start" x="0" y="433" transform="translate(542,0) rotate(90,0,427)" style="font-family: arial, verdana, arial, arial; font-size: 12px; fill: rgb(42, 63, 95); fill-opacity: 1; white-space: pre;">Game 77</text></g><g class="xtick"><text text-anchor="start" x="0" y="433" transform="translate(558.8,0) rotate(90,0,427)" style="font-family: arial, verdana, arial, arial; font-size: 12px; fill: rgb(42, 63, 95); fill-opacity: 1; white-space: pre;">Game 78</text></g><g class="xtick"><text text-anchor="start" x="0" y="433" transform="translate(575.6,0) rotate(90,0,427)" style="font-family: arial, verdana, arial, arial; font-size: 12px; fill: rgb(42, 63, 95); fill-opacity: 1; white-space: pre;">Game 79</text></g><g class="xtick"><text text-anchor="start" x="0" y="433" transform="translate(592.4,0) rotate(90,0,427)" style="font-family: arial, verdana, arial, arial; font-size: 12px; fill: rgb(42, 63, 95); fill-opacity: 1; white-space: pre;">Game 80</text></g><g class="xtick"><text text-anchor="start" x="0" y="433" transform="translate(609.2,0) rotate(90,0,427)" style="font-family: arial, verdana, arial, arial; font-size: 12px; fill: rgb(42, 63, 95); fill-opacity: 1; white-space: pre;">Game 81</text></g><g class="xtick"><text text-anchor="start" x="0" y="433" transform="translate(626,0) rotate(90,0,427)" style="font-family: arial, verdana, arial, arial; font-size: 12px; fill: rgb(42, 63, 95); fill-opacity: 1; white-space: pre;">Game 82</text></g><g class="xtick"><text text-anchor="start" x="0" y="433" transform="translate(642.8,0) rotate(90,0,427)" style="font-family: arial, verdana, arial, arial; font-size: 12px; fill: rgb(42, 63, 95); fill-opacity: 1; white-space: pre;">Game 83</text></g><g class="xtick"><text text-anchor="start" x="0" y="433" transform="translate(659.6,0) rotate(90,0,427)" style="font-family: arial, verdana, arial, arial; font-size: 12px; fill: rgb(42, 63, 95); fill-opacity: 1; white-space: pre;">Game 84</text></g><g class="xtick"><text text-anchor="start" x="0" y="433" transform="translate(676.4,0) rotate(90,0,427)" style="font-family: arial, verdana, arial, arial; font-size: 12px; fill: rgb(42, 63, 95); fill-opacity: 1; white-space: pre;">Game 85</text></g><g class="xtick"><text text-anchor="start" x="0" y="433" transform="translate(693.2,0) rotate(90,0,427)" style="font-family: arial, verdana, arial, arial; font-size: 12px; fill: rgb(42, 63, 95); fill-opacity: 1; white-space: pre;">Game 86</text></g><g class="xtick"><text text-anchor="start" x="0" y="433" transform="translate(710,0) rotate(90,0,427)" style="font-family: arial, verdana, arial, arial; font-size: 12px; fill: rgb(42, 63, 95); fill-opacity: 1; white-space: pre;">Game 87</text></g><g class="xtick"><text text-anchor="start" x="0" y="433" transform="translate(726.8,0) rotate(90,0,427)" style="font-family: arial, verdana, arial, arial; font-size: 12px; fill: rgb(42, 63, 95); fill-opacity: 1; white-space: pre;">Game 88</text></g><g class="xtick"><text text-anchor="start" x="0" y="433" transform="translate(743.6,0) rotate(90,0,427)" style="font-family: arial, verdana, arial, arial; font-size: 12px; fill: rgb(42, 63, 95); fill-opacity: 1; white-space: pre;">Game 89</text></g><g class="xtick"><text text-anchor="start" x="0" y="433" transform="translate(760.4,0) rotate(90,0,427)" style="font-family: arial, verdana, arial, arial; font-size: 12px; fill: rgb(42, 63, 95); fill-opacity: 1; white-space: pre;">Game 90</text></g><g class="xtick"><text text-anchor="start" x="0" y="433" transform="translate(777.2,0) rotate(90,0,427)" style="font-family: arial, verdana, arial, arial; font-size: 12px; fill: rgb(42, 63, 95); fill-opacity: 1; white-space: pre;">Game 91</text></g><g class="xtick"><text text-anchor="start" x="0" y="433" transform="translate(794,0) rotate(90,0,427)" style="font-family: arial, verdana, arial, arial; font-size: 12px; fill: rgb(42, 63, 95); fill-opacity: 1; white-space: pre;">Game 92</text></g><g class="xtick"><text text-anchor="start" x="0" y="433" transform="translate(810.8,0) rotate(90,0,427)" style="font-family: arial, verdana, arial, arial; font-size: 12px; fill: rgb(42, 63, 95); fill-opacity: 1; white-space: pre;">Game 93</text></g><g class="xtick"><text text-anchor="start" x="0" y="433" transform="translate(827.6,0) rotate(90,0,427)" style="font-family: arial, verdana, arial, arial; font-size: 12px; fill: rgb(42, 63, 95); fill-opacity: 1; white-space: pre;">Game 94</text></g><g class="xtick"><text text-anchor="start" x="0" y="433" transform="translate(844.4,0) rotate(90,0,427)" style="font-family: arial, verdana, arial, arial; font-size: 12px; fill: rgb(42, 63, 95); fill-opacity: 1; white-space: pre;">Game 95</text></g><g class="xtick"><text text-anchor="start" x="0" y="433" transform="translate(861.2,0) rotate(90,0,427)" style="font-family: arial, verdana, arial, arial; font-size: 12px; fill: rgb(42, 63, 95); fill-opacity: 1; white-space: pre;">Game 96</text></g><g class="xtick"><text text-anchor="start" x="0" y="433" transform="translate(878,0) rotate(90,0,427)" style="font-family: arial, verdana, arial, arial; font-size: 12px; fill: rgb(42, 63, 95); fill-opacity: 1; white-space: pre;">Game 97</text></g><g class="xtick"><text text-anchor="start" x="0" y="433" transform="translate(894.8,0) rotate(90,0,427)" style="font-family: arial, verdana, arial, arial; font-size: 12px; fill: rgb(42, 63, 95); fill-opacity: 1; white-space: pre;">Game 98</text></g><g class="xtick"><text text-anchor="start" x="0" y="433" transform="translate(911.6,0) rotate(90,0,427)" style="font-family: arial, verdana, arial, arial; font-size: 12px; fill: rgb(42, 63, 95); fill-opacity: 1; white-space: pre;">Game 99</text></g></g><g class="yaxislayer-above"><g class="ytick"><text text-anchor="end" x="79" y="3.15" transform="translate(0,401.38)" style="font-family: arial, verdana, arial, arial; font-size: 9px; fill: rgb(42, 63, 95); fill-opacity: 1; white-space: pre;">5</text></g><g class="ytick"><text text-anchor="end" x="79" y="4.199999999999999" transform="translate(0,379)" style="font-family: arial, verdana, arial, arial; font-size: 12px; fill: rgb(42, 63, 95); fill-opacity: 1; white-space: pre;">0.1</text></g><g class="ytick"><text text-anchor="end" x="79" y="3.15" transform="translate(0,356.63)" style="font-family: arial, verdana, arial, arial; font-size: 9px; fill: rgb(42, 63, 95); fill-opacity: 1; white-space: pre;">2</text></g><g class="ytick"><text text-anchor="end" x="79" y="3.15" transform="translate(0,327.06)" style="font-family: arial, verdana, arial, arial; font-size: 9px; fill: rgb(42, 63, 95); fill-opacity: 1; white-space: pre;">5</text></g><g class="ytick"><text text-anchor="end" x="79" y="4.199999999999999" transform="translate(0,304.69)" style="font-family: arial, verdana, arial, arial; font-size: 12px; fill: rgb(42, 63, 95); fill-opacity: 1; white-space: pre;">1</text></g><g class="ytick"><text text-anchor="end" x="79" y="3.15" transform="translate(0,282.32)" style="font-family: arial, verdana, arial, arial; font-size: 9px; fill: rgb(42, 63, 95); fill-opacity: 1; white-space: pre;">2</text></g><g class="ytick"><text text-anchor="end" x="79" y="3.15" transform="translate(0,252.75)" style="font-family: arial, verdana, arial, arial; font-size: 9px; fill: rgb(42, 63, 95); fill-opacity: 1; white-space: pre;">5</text></g><g class="ytick"><text text-anchor="end" x="79" y="4.199999999999999" transform="translate(0,230.38)" style="font-family: arial, verdana, arial, arial; font-size: 12px; fill: rgb(42, 63, 95); fill-opacity: 1; white-space: pre;">10</text></g><g class="ytick"><text text-anchor="end" x="79" y="3.15" transform="translate(0,208.01)" style="font-family: arial, verdana, arial, arial; font-size: 9px; fill: rgb(42, 63, 95); fill-opacity: 1; white-space: pre;">2</text></g><g class="ytick"><text text-anchor="end" x="79" y="3.15" transform="translate(0,178.43)" style="font-family: arial, verdana, arial, arial; font-size: 9px; fill: rgb(42, 63, 95); fill-opacity: 1; white-space: pre;">5</text></g><g class="ytick"><text text-anchor="end" x="79" y="4.199999999999999" transform="translate(0,156.06)" style="font-family: arial, verdana, arial, arial; font-size: 12px; fill: rgb(42, 63, 95); fill-opacity: 1; white-space: pre;">100</text></g><g class="ytick"><text text-anchor="end" x="79" y="3.15" transform="translate(0,133.69)" style="font-family: arial, verdana, arial, arial; font-size: 9px; fill: rgb(42, 63, 95); fill-opacity: 1; white-space: pre;">2</text></g><g class="ytick"><text text-anchor="end" x="79" y="3.15" transform="translate(0,104.12)" style="font-family: arial, verdana, arial, arial; font-size: 9px; fill: rgb(42, 63, 95); fill-opacity: 1; white-space: pre;">5</text></g></g><g class="overaxes-above"/></g></g><g class="polarlayer"/><g class="ternarylayer"/><g class="geolayer"/><g class="funnelarealayer"/><g class="pielayer"/><g class="sunburstlayer"/><g class="glimages"/><defs id="topdefs-f2b92f"><g class="clips"/><clipPath id="legendf2b92f"><rect width="189" height="48" x="2" y="2"/></clipPath></defs><g class="layer-above"><g class="imagelayer"/><g class="shapelayer"/></g><g class="infolayer"><g class="legend" pointer-events="all" transform="translate(668, 100)"><rect class="bg" shape-rendering="crispEdges" width="191" height="50" x="1" y="1" style="stroke: rgb(0, 0, 0); stroke-opacity: 1; fill: rgb(176, 196, 222); fill-opacity: 1; stroke-width: 2px;"/><g class="scrollbox" transform="translate(0, 0)" clip-path="url('#legendf2b92f')"><g class="groups"><g class="traces" transform="translate(2, 16.5)" style="opacity: 1;"><text class="legendtext user-select-none" text-anchor="start" x="40" y="4.680000000000001" style="font-family: arial; font-size: 12px; fill: rgb(0, 0, 0); fill-opacity: 1; white-space: pre;">Zlnk fam based - symbolic</text><g class="layers" style="opacity: 1;"><g class="legendfill"/><g class="legendlines"><path class="js-line" d="M5,0h30" style="fill: none; stroke: rgb(44, 160, 44); stroke-opacity: 1; stroke-width: 2px;"/></g><g class="legendsymbols"><g class="legendpoints"/></g></g><rect class="legendtoggle" pointer-events="all" x="0" y="-9.5" width="233" height="19" style="cursor: pointer; fill: rgb(0, 0, 0); fill-opacity: 0;"/></g><g class="traces" transform="translate(2, 35.5)" style="opacity: 1;"><text class="legendtext user-select-none" text-anchor="start" x="40" y="4.680000000000001" style="font-family: arial; font-size: 12px; fill: rgb(0, 0, 0); fill-opacity: 1; white-space: pre;">Incremental pre-solve local</text><g class="layers" style="opacity: 1;"><g class="legendfill"/><g class="legendlines"/><g class="legendsymbols"><g class="legendpoints"><path class="legendundefined" d="M6,6H-6V-6H6Z" transform="translate(20,0)" style="stroke-width: 0.5px; fill: url(#pattern1); fill-opacity: 1; stroke: rgb(229, 236, 246); stroke-opacity: 1;"/></g></g></g><rect class="legendtoggle" pointer-events="all" x="0" y="-9.5" width="233" height="19" style="cursor: pointer; fill: rgb(0, 0, 0); fill-opacity: 0;"/></g></g></g><rect class="scrollbar" rx="20" ry="3" width="0" height="0" x="0" y="0" style="fill: rgb(128, 139, 164); fill-opacity: 1;"/></g><g class="g-gtitle"/><g class="g-xtitle"/><g class="g-ytitle"/></g></svg>
