<svg xmlns="http://www.w3.org/2000/svg" xmlns:xlink="http://www.w3.org/1999/xlink" class="main-svg"  width="315" height="290" viewBox="55 85 370 365">
<defs>
	<pattern id="pattern0" patternUnits="userSpaceOnUse" width="10" height="10">
		<rect x="0" y="0" width="10" height="10" style="fill: rgb(148, 103, 190)"/>
        <line x1="4" x2="4" y1="0" y2="10" style="stroke: white;stroke-width:2"/>
	</pattern>
	<pattern id="pattern1" patternUnits="userSpaceOnUse" width="10" height="10">
		<rect x="0" y="0" width="10" height="10" style="fill: rgb(255, 127, 15)"/>
        <line x1="4" x2="4" y1="0" y2="10" style="stroke: white;stroke-width:2"/>
	</pattern>
	<pattern id="pattern2" patternUnits="userSpaceOnUse" width="10" height="10">
		<rect x="0" y="0" width="10" height="10" style="fill: rgb(31, 119, 181)"/>
        <line x1="4" x2="4" y1="0" y2="10" style="stroke: white;stroke-width:2"/>
	</pattern>
	<pattern id="pattern3" patternUnits="userSpaceOnUse" width="10" height="10">
		<rect x="0" y="0" width="10" height="10" style="fill: rgb(214, 39, 41)"/>
        <line x1="4" x2="4" y1="0" y2="10" style="stroke: white;stroke-width:2"/>
	</pattern>
	<pattern id="pattern4" patternUnits="userSpaceOnUse" width="10" height="10">
		<rect x="0" y="0" width="10" height="10" style="fill: rgb(44, 160, 45)"/>
        <line x1="4" x2="4" y1="0" y2="10" style="stroke: white;stroke-width:2"/>
	</pattern></defs><rect x="0" y="0" width="500" height="500" style="fill: rgb(255, 255, 255); fill-opacity: 1;"/><defs id="defs-d717b6"><g class="clips"><clipPath id="clipd717b6xyplot" class="plotclip"><rect width="340" height="320"/></clipPath><clipPath class="axesclip" id="clipd717b6x"><rect x="80" y="0" width="340" height="500"/></clipPath><clipPath class="axesclip" id="clipd717b6y"><rect x="0" y="100" width="500" height="320"/></clipPath><clipPath class="axesclip" id="clipd717b6xy"><rect x="80" y="100" width="340" height="320"/></clipPath></g><g class="gradients"/></defs><g class="bglayer"><rect class="bg" x="80" y="100" width="340" height="320" style="fill: rgb(229, 236, 246); fill-opacity: 1; stroke-width: 0;"/></g><g class="layer-below"><g class="imagelayer"/><g class="shapelayer"/></g><g class="cartesianlayer"><g class="subplot xy"><g class="layer-subplot"><g class="shapelayer"/><g class="imagelayer"/></g><g class="gridlayer"><g class="x"><path class="xgrid crisp" transform="translate(150.82999999999998,0)" d="M0,100v320" style="stroke: rgb(255, 255, 255); stroke-opacity: 1; stroke-width: 1px;"/><path class="xgrid crisp" transform="translate(221.67,0)" d="M0,100v320" style="stroke: rgb(255, 255, 255); stroke-opacity: 1; stroke-width: 1px;"/><path class="xgrid crisp" transform="translate(292.5,0)" d="M0,100v320" style="stroke: rgb(255, 255, 255); stroke-opacity: 1; stroke-width: 1px;"/><path class="xgrid crisp" transform="translate(363.33,0)" d="M0,100v320" style="stroke: rgb(255, 255, 255); stroke-opacity: 1; stroke-width: 1px;"/></g><g class="y"><path class="ygrid crisp" transform="translate(0,377.71)" d="M80,0h340" style="stroke: rgb(255, 255, 255); stroke-opacity: 1; stroke-width: 1px;"/><path class="ygrid crisp" transform="translate(0,330.03)" d="M80,0h340" style="stroke: rgb(255, 255, 255); stroke-opacity: 1; stroke-width: 1px;"/><path class="ygrid crisp" transform="translate(0,288.73)" d="M80,0h340" style="stroke: rgb(255, 255, 255); stroke-opacity: 1; stroke-width: 1px;"/><path class="ygrid crisp" transform="translate(0,252.29)" d="M80,0h340" style="stroke: rgb(255, 255, 255); stroke-opacity: 1; stroke-width: 1px;"/><path class="ygrid crisp" transform="translate(0,219.7)" d="M80,0h340" style="stroke: rgb(255, 255, 255); stroke-opacity: 1; stroke-width: 1px;"/><path class="ygrid crisp" transform="translate(0,190.22)" d="M80,0h340" style="stroke: rgb(255, 255, 255); stroke-opacity: 1; stroke-width: 1px;"/><path class="ygrid crisp" transform="translate(0,163.31)" d="M80,0h340" style="stroke: rgb(255, 255, 255); stroke-opacity: 1; stroke-width: 1px;"/><path class="ygrid crisp" transform="translate(0,138.55)" d="M80,0h340" style="stroke: rgb(255, 255, 255); stroke-opacity: 1; stroke-width: 1px;"/><path class="ygrid crisp" transform="translate(0,115.63)" d="M80,0h340" style="stroke: rgb(255, 255, 255); stroke-opacity: 1; stroke-width: 1px;"/></g></g><g class="zerolinelayer"/><path class="xlines-below"/><path class="ylines-below"/><g class="overlines-below"/><g class="xaxislayer-below"/><g class="yaxislayer-below"/><g class="overaxes-below"/><g class="plot" transform="translate(80, 100)" clip-path="url('#clipd717b6xyplot')"><g class="scatterlayer mlayer"><g class="trace scatter traceac5616" style="stroke-miterlimit: 2; opacity: 1;"><g class="fills"/><g class="errorbars"/><g class="lines"><path class="js-line" d="M0,119.7L340,119.7" style="vector-effect: non-scaling-stroke; fill: none; stroke: rgb(31, 119, 180); stroke-opacity: 1; stroke-width: 2px; opacity: 1;"/></g><g class="points"/><g class="text"/></g><g class="trace scatter trace0ca954" style="stroke-miterlimit: 2; opacity: 1;"><g class="fills"/><g class="errorbars"/><g class="lines"><path class="js-line" d="M0,16L14.17,137.37L28.33,156.47L42.5,120.79L56.67,119.87L70.83,304L85,118.92L113.33,120.15L127.5,246.96L141.67,148.77L155.83,122.32L170,143.79L184.17,120.55L198.33,130.29L212.5,132.38L226.67,119.82L240.83,117.03L255,173.22L269.17,118.59L283.33,126.62L297.5,121.98L311.67,133.83L325.83,119.81L340,141.78" style="vector-effect: non-scaling-stroke; fill: none; stroke: url(#pattern2); stroke-opacity: 1; stroke-width: 2px; opacity: 1;"/></g><g class="points"/><g class="text"/></g></g></g><g class="overplot"/><path class="xlines-above crisp" d="M0,0" style="fill: none;"/><path class="ylines-above crisp" d="M0,0" style="fill: none;"/><g class="overlines-above"/><g class="xaxislayer-above"><g class="xtick"><text text-anchor="middle" x="0" y="433" transform="translate(80,0)" style="font-family: arial, verdana, arial, arial; font-size: 12px; fill: rgb(42, 63, 95); fill-opacity: 1; white-space: pre;">75</text></g><g class="xtick"><text text-anchor="middle" x="0" y="433" transform="translate(150.82999999999998,0)" style="font-family: arial, verdana, arial, arial; font-size: 12px; fill: rgb(42, 63, 95); fill-opacity: 1; white-space: pre;">80</text></g><g class="xtick"><text text-anchor="middle" x="0" y="433" transform="translate(221.67,0)" style="font-family: arial, verdana, arial, arial; font-size: 12px; fill: rgb(42, 63, 95); fill-opacity: 1; white-space: pre;">85</text></g><g class="xtick"><text text-anchor="middle" x="0" y="433" transform="translate(292.5,0)" style="font-family: arial, verdana, arial, arial; font-size: 12px; fill: rgb(42, 63, 95); fill-opacity: 1; white-space: pre;">90</text></g><g class="xtick"><text text-anchor="middle" x="0" y="433" transform="translate(363.33,0)" style="font-family: arial, verdana, arial, arial; font-size: 12px; fill: rgb(42, 63, 95); fill-opacity: 1; white-space: pre;">95</text></g></g><g class="yaxislayer-above"><g class="ytick"><text text-anchor="end" x="79" y="4.199999999999999" transform="translate(0,377.71)" style="font-family: arial, verdana, arial, arial; font-size: 12px; fill: rgb(42, 63, 95); fill-opacity: 1; white-space: pre;">0.6</text></g><g class="ytick"><text text-anchor="end" x="79" y="4.199999999999999" transform="translate(0,330.03)" style="font-family: arial, verdana, arial, arial; font-size: 12px; fill: rgb(42, 63, 95); fill-opacity: 1; white-space: pre;">0.7</text></g><g class="ytick"><text text-anchor="end" x="79" y="4.199999999999999" transform="translate(0,288.73)" style="font-family: arial, verdana, arial, arial; font-size: 12px; fill: rgb(42, 63, 95); fill-opacity: 1; white-space: pre;">0.8</text></g><g class="ytick"><text text-anchor="end" x="79" y="4.199999999999999" transform="translate(0,252.29)" style="font-family: arial, verdana, arial, arial; font-size: 12px; fill: rgb(42, 63, 95); fill-opacity: 1; white-space: pre;">0.9</text></g><g class="ytick"><text text-anchor="end" x="79" y="4.199999999999999" transform="translate(0,219.7)" style="font-family: arial, verdana, arial, arial; font-size: 12px; fill: rgb(42, 63, 95); fill-opacity: 1; white-space: pre;">1</text></g><g class="ytick"><text text-anchor="end" x="79" y="4.199999999999999" transform="translate(0,190.22)" style="font-family: arial, verdana, arial, arial; font-size: 12px; fill: rgb(42, 63, 95); fill-opacity: 1; white-space: pre;">1.1</text></g><g class="ytick"><text text-anchor="end" x="79" y="4.199999999999999" transform="translate(0,163.31)" style="font-family: arial, verdana, arial, arial; font-size: 12px; fill: rgb(42, 63, 95); fill-opacity: 1; white-space: pre;">1.2</text></g><g class="ytick"><text text-anchor="end" x="79" y="4.199999999999999" transform="translate(0,138.55)" style="font-family: arial, verdana, arial, arial; font-size: 12px; fill: rgb(42, 63, 95); fill-opacity: 1; white-space: pre;">1.3</text></g><g class="ytick"><text text-anchor="end" x="79" y="4.199999999999999" transform="translate(0,115.63)" style="font-family: arial, verdana, arial, arial; font-size: 12px; fill: rgb(42, 63, 95); fill-opacity: 1; white-space: pre;">1.4</text></g></g><g class="overaxes-above"/></g></g><g class="polarlayer"/><g class="ternarylayer"/><g class="geolayer"/><g class="funnelarealayer"/><g class="pielayer"/><g class="sunburstlayer"/><g class="glimages"/><defs id="topdefs-d717b6"><g class="clips"/></defs><g class="layer-above"><g class="imagelayer"/><g class="shapelayer"/></g><g class="infolayer"><g class="g-gtitle"/><g class="g-xtitle"/><g class="g-ytitle"/></g></svg>
