<svg xmlns="http://www.w3.org/2000/svg" xmlns:xlink="http://www.w3.org/1999/xlink" class="main-svg"  width="315" height="290" viewBox="55 85 370 365">
<defs>
	<pattern id="pattern0" patternUnits="userSpaceOnUse" width="10" height="10">
		<rect x="0" y="0" width="10" height="10" style="fill: rgb(148, 103, 190)"/>
        <line x1="4" x2="4" y1="0" y2="10" style="stroke: white;stroke-width:2"/>
	</pattern>
	<pattern id="pattern1" patternUnits="userSpaceOnUse" width="10" height="10">
		<rect x="0" y="0" width="10" height="10" style="fill: rgb(255, 127, 15)"/>
        <line x1="4" x2="4" y1="0" y2="10" style="stroke: white;stroke-width:2"/>
	</pattern>
	<pattern id="pattern2" patternUnits="userSpaceOnUse" width="10" height="10">
		<rect x="0" y="0" width="10" height="10" style="fill: rgb(31, 119, 181)"/>
        <line x1="4" x2="4" y1="0" y2="10" style="stroke: white;stroke-width:2"/>
	</pattern>
	<pattern id="pattern3" patternUnits="userSpaceOnUse" width="10" height="10">
		<rect x="0" y="0" width="10" height="10" style="fill: rgb(214, 39, 41)"/>
        <line x1="4" x2="4" y1="0" y2="10" style="stroke: white;stroke-width:2"/>
	</pattern>
	<pattern id="pattern4" patternUnits="userSpaceOnUse" width="10" height="10">
		<rect x="0" y="0" width="10" height="10" style="fill: rgb(44, 160, 45)"/>
        <line x1="4" x2="4" y1="0" y2="10" style="stroke: white;stroke-width:2"/>
	</pattern></defs><rect x="0" y="0" width="500" height="500" style="fill: rgb(255, 255, 255); fill-opacity: 1;"/><defs id="defs-ead484"><g class="clips"><clipPath id="clipead484xyplot" class="plotclip"><rect width="340" height="320"/></clipPath><clipPath class="axesclip" id="clipead484x"><rect x="80" y="0" width="340" height="500"/></clipPath><clipPath class="axesclip" id="clipead484y"><rect x="0" y="100" width="500" height="320"/></clipPath><clipPath class="axesclip" id="clipead484xy"><rect x="80" y="100" width="340" height="320"/></clipPath></g><g class="gradients"/></defs><g class="bglayer"><rect class="bg" x="80" y="100" width="340" height="320" style="fill: rgb(229, 236, 246); fill-opacity: 1; stroke-width: 0;"/></g><g class="layer-below"><g class="imagelayer"/><g class="shapelayer"/></g><g class="cartesianlayer"><g class="subplot xy"><g class="layer-subplot"><g class="shapelayer"/><g class="imagelayer"/></g><g class="gridlayer"><g class="x"><path class="xgrid crisp" transform="translate(150.82999999999998,0)" d="M0,100v320" style="stroke: rgb(255, 255, 255); stroke-opacity: 1; stroke-width: 1px;"/><path class="xgrid crisp" transform="translate(221.67,0)" d="M0,100v320" style="stroke: rgb(255, 255, 255); stroke-opacity: 1; stroke-width: 1px;"/><path class="xgrid crisp" transform="translate(292.5,0)" d="M0,100v320" style="stroke: rgb(255, 255, 255); stroke-opacity: 1; stroke-width: 1px;"/><path class="xgrid crisp" transform="translate(363.33,0)" d="M0,100v320" style="stroke: rgb(255, 255, 255); stroke-opacity: 1; stroke-width: 1px;"/></g><g class="y"><path class="ygrid crisp" transform="translate(0,389.48)" d="M80,0h340" style="stroke: rgb(255, 255, 255); stroke-opacity: 1; stroke-width: 1px;"/><path class="ygrid crisp" transform="translate(0,355.59000000000003)" d="M80,0h340" style="stroke: rgb(255, 255, 255); stroke-opacity: 1; stroke-width: 1px;"/><path class="ygrid crisp" transform="translate(0,310.81)" d="M80,0h340" style="stroke: rgb(255, 255, 255); stroke-opacity: 1; stroke-width: 1px;"/><path class="ygrid crisp" transform="translate(0,276.93)" d="M80,0h340" style="stroke: rgb(255, 255, 255); stroke-opacity: 1; stroke-width: 1px;"/><path class="ygrid crisp" transform="translate(0,243.04)" d="M80,0h340" style="stroke: rgb(255, 255, 255); stroke-opacity: 1; stroke-width: 1px;"/><path class="ygrid crisp" transform="translate(0,198.26)" d="M80,0h340" style="stroke: rgb(255, 255, 255); stroke-opacity: 1; stroke-width: 1px;"/><path class="ygrid crisp" transform="translate(0,164.37)" d="M80,0h340" style="stroke: rgb(255, 255, 255); stroke-opacity: 1; stroke-width: 1px;"/><path class="ygrid crisp" transform="translate(0,130.49)" d="M80,0h340" style="stroke: rgb(255, 255, 255); stroke-opacity: 1; stroke-width: 1px;"/></g></g><g class="zerolinelayer"/><path class="xlines-below"/><path class="ylines-below"/><g class="overlines-below"/><g class="xaxislayer-below"/><g class="yaxislayer-below"/><g class="overaxes-below"/><g class="plot" transform="translate(80, 100)" clip-path="url('#clipead484xyplot')"><g class="scatterlayer mlayer"><g class="trace scatter traceb5272e" style="stroke-miterlimit: 2; opacity: 1;"><g class="fills"/><g class="errorbars"/><g class="lines"><path class="js-line" d="M0,64.37L340,64.37" style="vector-effect: non-scaling-stroke; fill: none; stroke: url(#pattern2); stroke-opacity: 1; stroke-width: 2px; opacity: 1;"/></g><g class="points"/><g class="text"/></g><g class="trace scatter trace3b321e" style="stroke-miterlimit: 2; opacity: 1;"><g class="fills"/><g class="errorbars"/><g class="lines"><path class="js-line" d="M0,16L14.17,53.43L28.33,193.37L42.5,26.31L56.67,181.47L70.83,66.06L85,152.7L99.17,163.89L113.33,118.22L127.5,193.88L141.67,184.27L155.83,238.22L170,231.94L184.17,201.7L198.33,149.75L212.5,218.34L226.67,176.16L240.83,171.71L255,56.83L269.17,101.4L283.33,233.83L297.5,183.46L311.67,181.99L325.83,56.84L340,85.09" style="vector-effect: non-scaling-stroke; fill: none; stroke: url(#pattern3); stroke-opacity: 1; stroke-width: 2px; opacity: 1;"/></g><g class="points"/><g class="text"/></g><g class="trace scatter traced81a97" style="stroke-miterlimit: 2; opacity: 1;"><g class="fills"/><g class="errorbars"/><g class="lines"><path class="js-line" d="M0,29.41L14.17,84.13L28.33,205.22L42.5,48.22L56.67,207.98L70.83,90.86L85,143.82L99.17,171.34L113.33,114.72L127.5,231.79L141.67,192.35L155.83,300.1L170,269.13L184.17,255.65L198.33,142.7L212.5,304L226.67,183.24L240.83,200.94L255,70.18L269.17,173.82L283.33,299.77L297.5,215.62L311.67,201.28L325.83,94.21L340,152.57" style="vector-effect: non-scaling-stroke; fill: none; stroke: url(#pattern4); stroke-opacity: 1; stroke-width: 2px; opacity: 1;"/></g><g class="points"/><g class="text"/></g></g></g><g class="overplot"/><path class="xlines-above crisp" d="M0,0" style="fill: none;"/><path class="ylines-above crisp" d="M0,0" style="fill: none;"/><g class="overlines-above"/><g class="xaxislayer-above"><g class="xtick"><text text-anchor="middle" x="0" y="433" transform="translate(80,0)" style="font-family: arial, verdana, arial, arial; font-size: 12px; fill: rgb(42, 63, 95); fill-opacity: 1; white-space: pre;">75</text></g><g class="xtick"><text text-anchor="middle" x="0" y="433" transform="translate(150.82999999999998,0)" style="font-family: arial, verdana, arial, arial; font-size: 12px; fill: rgb(42, 63, 95); fill-opacity: 1; white-space: pre;">80</text></g><g class="xtick"><text text-anchor="middle" x="0" y="433" transform="translate(221.67,0)" style="font-family: arial, verdana, arial, arial; font-size: 12px; fill: rgb(42, 63, 95); fill-opacity: 1; white-space: pre;">85</text></g><g class="xtick"><text text-anchor="middle" x="0" y="433" transform="translate(292.5,0)" style="font-family: arial, verdana, arial, arial; font-size: 12px; fill: rgb(42, 63, 95); fill-opacity: 1; white-space: pre;">90</text></g><g class="xtick"><text text-anchor="middle" x="0" y="433" transform="translate(363.33,0)" style="font-family: arial, verdana, arial, arial; font-size: 12px; fill: rgb(42, 63, 95); fill-opacity: 1; white-space: pre;">95</text></g></g><g class="yaxislayer-above"><g class="ytick"><text text-anchor="end" x="79" y="4.199999999999999" transform="translate(0,389.48)" style="font-family: arial, verdana, arial, arial; font-size: 12px; fill: rgb(42, 63, 95); fill-opacity: 1; white-space: pre;">0.01</text></g><g class="ytick"><text text-anchor="end" x="79" y="3.15" transform="translate(0,355.59000000000003)" style="font-family: arial, verdana, arial, arial; font-size: 9px; fill: rgb(42, 63, 95); fill-opacity: 1; white-space: pre;">2</text></g><g class="ytick"><text text-anchor="end" x="79" y="3.15" transform="translate(0,310.81)" style="font-family: arial, verdana, arial, arial; font-size: 9px; fill: rgb(42, 63, 95); fill-opacity: 1; white-space: pre;">5</text></g><g class="ytick"><text text-anchor="end" x="79" y="4.199999999999999" transform="translate(0,276.93)" style="font-family: arial, verdana, arial, arial; font-size: 12px; fill: rgb(42, 63, 95); fill-opacity: 1; white-space: pre;">0.1</text></g><g class="ytick"><text text-anchor="end" x="79" y="3.15" transform="translate(0,243.04)" style="font-family: arial, verdana, arial, arial; font-size: 9px; fill: rgb(42, 63, 95); fill-opacity: 1; white-space: pre;">2</text></g><g class="ytick"><text text-anchor="end" x="79" y="3.15" transform="translate(0,198.26)" style="font-family: arial, verdana, arial, arial; font-size: 9px; fill: rgb(42, 63, 95); fill-opacity: 1; white-space: pre;">5</text></g><g class="ytick"><text text-anchor="end" x="79" y="4.199999999999999" transform="translate(0,164.37)" style="font-family: arial, verdana, arial, arial; font-size: 12px; fill: rgb(42, 63, 95); fill-opacity: 1; white-space: pre;">1</text></g><g class="ytick"><text text-anchor="end" x="79" y="3.15" transform="translate(0,130.49)" style="font-family: arial, verdana, arial, arial; font-size: 9px; fill: rgb(42, 63, 95); fill-opacity: 1; white-space: pre;">2</text></g></g><g class="overaxes-above"/></g></g><g class="polarlayer"/><g class="ternarylayer"/><g class="geolayer"/><g class="funnelarealayer"/><g class="pielayer"/><g class="sunburstlayer"/><g class="glimages"/><defs id="topdefs-ead484"><g class="clips"/></defs><g class="layer-above"><g class="imagelayer"/><g class="shapelayer"/></g><g class="infolayer"><g class="g-gtitle"/><g class="g-xtitle"/><g class="g-ytitle"/></g></svg>
