<svg xmlns="http://www.w3.org/2000/svg" xmlns:xlink="http://www.w3.org/1999/xlink" class="main-svg"  width="315" height="290" viewBox="55 85 370 365">
<defs>
	<pattern id="pattern0" patternUnits="userSpaceOnUse" width="10" height="10">
		<rect x="0" y="0" width="10" height="10" style="fill: rgb(148, 103, 190)"/>
        <line x1="4" x2="4" y1="0" y2="10" style="stroke: white;stroke-width:2"/>
	</pattern>
	<pattern id="pattern1" patternUnits="userSpaceOnUse" width="10" height="10">
		<rect x="0" y="0" width="10" height="10" style="fill: rgb(255, 127, 15)"/>
        <line x1="4" x2="4" y1="0" y2="10" style="stroke: white;stroke-width:2"/>
	</pattern>
	<pattern id="pattern2" patternUnits="userSpaceOnUse" width="10" height="10">
		<rect x="0" y="0" width="10" height="10" style="fill: rgb(31, 119, 181)"/>
        <line x1="4" x2="4" y1="0" y2="10" style="stroke: white;stroke-width:2"/>
	</pattern>
	<pattern id="pattern3" patternUnits="userSpaceOnUse" width="10" height="10">
		<rect x="0" y="0" width="10" height="10" style="fill: rgb(214, 39, 41)"/>
        <line x1="4" x2="4" y1="0" y2="10" style="stroke: white;stroke-width:2"/>
	</pattern>
	<pattern id="pattern4" patternUnits="userSpaceOnUse" width="10" height="10">
		<rect x="0" y="0" width="10" height="10" style="fill: rgb(44, 160, 45)"/>
        <line x1="4" x2="4" y1="0" y2="10" style="stroke: white;stroke-width:2"/>
	</pattern></defs><rect x="0" y="0" width="500" height="500" style="fill: rgb(255, 255, 255); fill-opacity: 1;"/><defs id="defs-a81ea9"><g class="clips"><clipPath id="clipa81ea9xyplot" class="plotclip"><rect width="340" height="320"/></clipPath><clipPath class="axesclip" id="clipa81ea9x"><rect x="80" y="0" width="340" height="500"/></clipPath><clipPath class="axesclip" id="clipa81ea9y"><rect x="0" y="100" width="500" height="320"/></clipPath><clipPath class="axesclip" id="clipa81ea9xy"><rect x="80" y="100" width="340" height="320"/></clipPath></g><g class="gradients"/></defs><g class="bglayer"><rect class="bg" x="80" y="100" width="340" height="320" style="fill: rgb(229, 236, 246); fill-opacity: 1; stroke-width: 0;"/></g><g class="layer-below"><g class="imagelayer"/><g class="shapelayer"/></g><g class="cartesianlayer"><g class="subplot xy"><g class="layer-subplot"><g class="shapelayer"/><g class="imagelayer"/></g><g class="gridlayer"><g class="x"><path class="xgrid crisp" transform="translate(138.06,0)" d="M0,100v320" style="stroke: rgb(255, 255, 255); stroke-opacity: 1; stroke-width: 1px;"/><path class="xgrid crisp" transform="translate(212.69,0)" d="M0,100v320" style="stroke: rgb(255, 255, 255); stroke-opacity: 1; stroke-width: 1px;"/><path class="xgrid crisp" transform="translate(287.31,0)" d="M0,100v320" style="stroke: rgb(255, 255, 255); stroke-opacity: 1; stroke-width: 1px;"/><path class="xgrid crisp" transform="translate(361.94,0)" d="M0,100v320" style="stroke: rgb(255, 255, 255); stroke-opacity: 1; stroke-width: 1px;"/></g><g class="y"><path class="ygrid crisp" transform="translate(0,418.54)" d="M80,0h340" style="stroke: rgb(255, 255, 255); stroke-opacity: 1; stroke-width: 1px;"/><path class="ygrid crisp" transform="translate(0,403.13)" d="M80,0h340" style="stroke: rgb(255, 255, 255); stroke-opacity: 1; stroke-width: 1px;"/><path class="ygrid crisp" transform="translate(0,390.11)" d="M80,0h340" style="stroke: rgb(255, 255, 255); stroke-opacity: 1; stroke-width: 1px;"/><path class="ygrid crisp" transform="translate(0,378.83)" d="M80,0h340" style="stroke: rgb(255, 255, 255); stroke-opacity: 1; stroke-width: 1px;"/><path class="ygrid crisp" transform="translate(0,368.87)" d="M80,0h340" style="stroke: rgb(255, 255, 255); stroke-opacity: 1; stroke-width: 1px;"/><path class="ygrid crisp" transform="translate(0,359.97)" d="M80,0h340" style="stroke: rgb(255, 255, 255); stroke-opacity: 1; stroke-width: 1px;"/><path class="ygrid crisp" transform="translate(0,301.4)" d="M80,0h340" style="stroke: rgb(255, 255, 255); stroke-opacity: 1; stroke-width: 1px;"/><path class="ygrid crisp" transform="translate(0,267.14)" d="M80,0h340" style="stroke: rgb(255, 255, 255); stroke-opacity: 1; stroke-width: 1px;"/><path class="ygrid crisp" transform="translate(0,242.84)" d="M80,0h340" style="stroke: rgb(255, 255, 255); stroke-opacity: 1; stroke-width: 1px;"/><path class="ygrid crisp" transform="translate(0,223.98000000000002)" d="M80,0h340" style="stroke: rgb(255, 255, 255); stroke-opacity: 1; stroke-width: 1px;"/><path class="ygrid crisp" transform="translate(0,208.57999999999998)" d="M80,0h340" style="stroke: rgb(255, 255, 255); stroke-opacity: 1; stroke-width: 1px;"/><path class="ygrid crisp" transform="translate(0,195.55)" d="M80,0h340" style="stroke: rgb(255, 255, 255); stroke-opacity: 1; stroke-width: 1px;"/><path class="ygrid crisp" transform="translate(0,184.26999999999998)" d="M80,0h340" style="stroke: rgb(255, 255, 255); stroke-opacity: 1; stroke-width: 1px;"/><path class="ygrid crisp" transform="translate(0,174.32)" d="M80,0h340" style="stroke: rgb(255, 255, 255); stroke-opacity: 1; stroke-width: 1px;"/><path class="ygrid crisp" transform="translate(0,165.41)" d="M80,0h340" style="stroke: rgb(255, 255, 255); stroke-opacity: 1; stroke-width: 1px;"/><path class="ygrid crisp" transform="translate(0,106.85)" d="M80,0h340" style="stroke: rgb(255, 255, 255); stroke-opacity: 1; stroke-width: 1px;"/></g></g><g class="zerolinelayer"/><path class="xlines-below"/><path class="ylines-below"/><g class="overlines-below"/><g class="xaxislayer-below"/><g class="yaxislayer-below"/><g class="overaxes-below"/><g class="plot" transform="translate(80, 100)" clip-path="url('#clipa81ea9xyplot')"><g class="scatterlayer mlayer"><g class="trace scatter tracea7791b" style="stroke-miterlimit: 2; opacity: 1;"><g class="fills"/><g class="errorbars"/><g class="lines"><path class="js-line" d="M20.75,65.41L319.25,65.41" style="vector-effect: non-scaling-stroke; fill: none; stroke: url(#pattern2); stroke-opacity: 1; stroke-width: 2px; opacity: 1;"/></g><g class="points"><path class="point" transform="translate(20.75,65.41)" d="M3,0A3,3 0 1,1 0,-3A3,3 0 0,1 3,0Z" style="opacity: 1; stroke-width: 0px; fill: url(#pattern2); fill-opacity: 1;"/><path class="point" transform="translate(58.06,65.41)" d="M3,0A3,3 0 1,1 0,-3A3,3 0 0,1 3,0Z" style="opacity: 1; stroke-width: 0px; fill: url(#pattern2); fill-opacity: 1;"/><path class="point" transform="translate(95.38,65.41)" d="M3,0A3,3 0 1,1 0,-3A3,3 0 0,1 3,0Z" style="opacity: 1; stroke-width: 0px; fill: url(#pattern2); fill-opacity: 1;"/><path class="point" transform="translate(132.69,65.41)" d="M3,0A3,3 0 1,1 0,-3A3,3 0 0,1 3,0Z" style="opacity: 1; stroke-width: 0px; fill: url(#pattern2); fill-opacity: 1;"/><path class="point" transform="translate(170,65.41)" d="M3,0A3,3 0 1,1 0,-3A3,3 0 0,1 3,0Z" style="opacity: 1; stroke-width: 0px; fill: url(#pattern2); fill-opacity: 1;"/><path class="point" transform="translate(207.31,65.41)" d="M3,0A3,3 0 1,1 0,-3A3,3 0 0,1 3,0Z" style="opacity: 1; stroke-width: 0px; fill: url(#pattern2); fill-opacity: 1;"/><path class="point" transform="translate(244.63,65.41)" d="M3,0A3,3 0 1,1 0,-3A3,3 0 0,1 3,0Z" style="opacity: 1; stroke-width: 0px; fill: url(#pattern2); fill-opacity: 1;"/><path class="point" transform="translate(281.94,65.41)" d="M3,0A3,3 0 1,1 0,-3A3,3 0 0,1 3,0Z" style="opacity: 1; stroke-width: 0px; fill: url(#pattern2); fill-opacity: 1;"/><path class="point" transform="translate(319.25,65.41)" d="M3,0A3,3 0 1,1 0,-3A3,3 0 0,1 3,0Z" style="opacity: 1; stroke-width: 0px; fill: url(#pattern2); fill-opacity: 1;"/></g><g class="text"/></g><g class="trace scatter trace24469b" style="stroke-miterlimit: 2; opacity: 1;"><g class="fills"/><g class="errorbars"/><g class="lines"><path class="js-line" d="M20.75,84.5L58.06,88.1L95.38,57.64L132.69,23.17L170,101.05L207.31,19.75L244.63,109.5L281.94,38.62L319.25,122.77" style="vector-effect: non-scaling-stroke; fill: none; stroke: url(#pattern3); stroke-opacity: 1; stroke-width: 2px; opacity: 1;"/></g><g class="points"><path class="point" transform="translate(20.75,84.5)" d="M3,0A3,3 0 1,1 0,-3A3,3 0 0,1 3,0Z" style="opacity: 1; stroke-width: 0px; fill: url(#pattern3); fill-opacity: 1;"/><path class="point" transform="translate(58.06,88.1)" d="M3,0A3,3 0 1,1 0,-3A3,3 0 0,1 3,0Z" style="opacity: 1; stroke-width: 0px; fill: url(#pattern3); fill-opacity: 1;"/><path class="point" transform="translate(95.38,57.64)" d="M3,0A3,3 0 1,1 0,-3A3,3 0 0,1 3,0Z" style="opacity: 1; stroke-width: 0px; fill: url(#pattern3); fill-opacity: 1;"/><path class="point" transform="translate(132.69,23.17)" d="M3,0A3,3 0 1,1 0,-3A3,3 0 0,1 3,0Z" style="opacity: 1; stroke-width: 0px; fill: url(#pattern3); fill-opacity: 1;"/><path class="point" transform="translate(170,101.05)" d="M3,0A3,3 0 1,1 0,-3A3,3 0 0,1 3,0Z" style="opacity: 1; stroke-width: 0px; fill: url(#pattern3); fill-opacity: 1;"/><path class="point" transform="translate(207.31,19.75)" d="M3,0A3,3 0 1,1 0,-3A3,3 0 0,1 3,0Z" style="opacity: 1; stroke-width: 0px; fill: url(#pattern3); fill-opacity: 1;"/><path class="point" transform="translate(244.63,109.5)" d="M3,0A3,3 0 1,1 0,-3A3,3 0 0,1 3,0Z" style="opacity: 1; stroke-width: 0px; fill: url(#pattern3); fill-opacity: 1;"/><path class="point" transform="translate(281.94,38.62)" d="M3,0A3,3 0 1,1 0,-3A3,3 0 0,1 3,0Z" style="opacity: 1; stroke-width: 0px; fill: url(#pattern3); fill-opacity: 1;"/><path class="point" transform="translate(319.25,122.77)" d="M3,0A3,3 0 1,1 0,-3A3,3 0 0,1 3,0Z" style="opacity: 1; stroke-width: 0px; fill: url(#pattern3); fill-opacity: 1;"/></g><g class="text"/></g><g class="trace scatter tracec72dba" style="stroke-miterlimit: 2; opacity: 1;"><g class="fills"/><g class="errorbars"/><g class="lines"><path class="js-line" d="M20.75,255.35L58.06,243.81L95.38,226.33L132.69,186.43L170,257.05L207.31,180.12L244.63,267.66L281.94,291.72L319.25,300.25" style="vector-effect: non-scaling-stroke; fill: none; stroke: url(#pattern4); stroke-opacity: 1; stroke-width: 2px; opacity: 1;"/></g><g class="points"><path class="point" transform="translate(20.75,255.35)" d="M3,0A3,3 0 1,1 0,-3A3,3 0 0,1 3,0Z" style="opacity: 1; stroke-width: 0px; fill: url(#pattern4); fill-opacity: 1;"/><path class="point" transform="translate(58.06,243.81)" d="M3,0A3,3 0 1,1 0,-3A3,3 0 0,1 3,0Z" style="opacity: 1; stroke-width: 0px; fill: url(#pattern4); fill-opacity: 1;"/><path class="point" transform="translate(95.38,226.33)" d="M3,0A3,3 0 1,1 0,-3A3,3 0 0,1 3,0Z" style="opacity: 1; stroke-width: 0px; fill: url(#pattern4); fill-opacity: 1;"/><path class="point" transform="translate(132.69,186.43)" d="M3,0A3,3 0 1,1 0,-3A3,3 0 0,1 3,0Z" style="opacity: 1; stroke-width: 0px; fill: url(#pattern4); fill-opacity: 1;"/><path class="point" transform="translate(170,257.05)" d="M3,0A3,3 0 1,1 0,-3A3,3 0 0,1 3,0Z" style="opacity: 1; stroke-width: 0px; fill: url(#pattern4); fill-opacity: 1;"/><path class="point" transform="translate(207.31,180.12)" d="M3,0A3,3 0 1,1 0,-3A3,3 0 0,1 3,0Z" style="opacity: 1; stroke-width: 0px; fill: url(#pattern4); fill-opacity: 1;"/><path class="point" transform="translate(244.63,267.66)" d="M3,0A3,3 0 1,1 0,-3A3,3 0 0,1 3,0Z" style="opacity: 1; stroke-width: 0px; fill: url(#pattern4); fill-opacity: 1;"/><path class="point" transform="translate(281.94,291.72)" d="M3,0A3,3 0 1,1 0,-3A3,3 0 0,1 3,0Z" style="opacity: 1; stroke-width: 0px; fill: url(#pattern4); fill-opacity: 1;"/><path class="point" transform="translate(319.25,300.25)" d="M3,0A3,3 0 1,1 0,-3A3,3 0 0,1 3,0Z" style="opacity: 1; stroke-width: 0px; fill: url(#pattern4); fill-opacity: 1;"/></g><g class="text"/></g></g></g><g class="overplot"/><path class="xlines-above crisp" d="M0,0" style="fill: none;"/><path class="ylines-above crisp" d="M0,0" style="fill: none;"/><g class="overlines-above"/><g class="xaxislayer-above"><g class="xtick"><text text-anchor="middle" x="0" y="433" transform="translate(138.06,0)" style="font-family: arial, verdana, arial, arial; font-size: 12px; fill: rgb(42, 63, 95); fill-opacity: 1; white-space: pre;">2</text></g><g class="xtick"><text text-anchor="middle" x="0" y="433" transform="translate(212.69,0)" style="font-family: arial, verdana, arial, arial; font-size: 12px; fill: rgb(42, 63, 95); fill-opacity: 1; white-space: pre;">4</text></g><g class="xtick"><text text-anchor="middle" x="0" y="433" transform="translate(287.31,0)" style="font-family: arial, verdana, arial, arial; font-size: 12px; fill: rgb(42, 63, 95); fill-opacity: 1; white-space: pre;">6</text></g><g class="xtick"><text text-anchor="middle" x="0" y="433" transform="translate(361.94,0)" style="font-family: arial, verdana, arial, arial; font-size: 12px; fill: rgb(42, 63, 95); fill-opacity: 1; white-space: pre;">8</text></g></g><g class="yaxislayer-above"><g class="ytick"><text text-anchor="end" x="79" y="3.15" transform="translate(0,418.54)" style="font-family: arial, verdana, arial, arial; font-size: 9px; fill: rgb(42, 63, 95); fill-opacity: 1; white-space: pre;">5</text></g><g class="ytick"><text text-anchor="end" x="79" y="3.15" transform="translate(0,403.13)" style="font-family: arial, verdana, arial, arial; font-size: 9px; fill: rgb(42, 63, 95); fill-opacity: 1; white-space: pre;">6</text></g><g class="ytick"><text text-anchor="end" x="79" y="3.15" transform="translate(0,390.11)" style="font-family: arial, verdana, arial, arial; font-size: 9px; fill: rgb(42, 63, 95); fill-opacity: 1; white-space: pre;">7</text></g><g class="ytick"><text text-anchor="end" x="79" y="3.15" transform="translate(0,378.83)" style="font-family: arial, verdana, arial, arial; font-size: 9px; fill: rgb(42, 63, 95); fill-opacity: 1; white-space: pre;">8</text></g><g class="ytick"><text text-anchor="end" x="79" y="3.15" transform="translate(0,368.87)" style="font-family: arial, verdana, arial, arial; font-size: 9px; fill: rgb(42, 63, 95); fill-opacity: 1; white-space: pre;">9</text></g><g class="ytick"><text text-anchor="end" x="76" y="2.1999999999999993" transform="translate(0,359.97)" style="font-family: arial, verdana, arial, arial; font-size: 12px; fill: rgb(42, 63, 95); fill-opacity: 1; white-space: pre;">0.1</text></g><g class="ytick"><text text-anchor="end" x="79" y="3.15" transform="translate(0,301.4)" style="font-family: arial, verdana, arial, arial; font-size: 9px; fill: rgb(42, 63, 95); fill-opacity: 1; white-space: pre;">2</text></g><g class="ytick"><text text-anchor="end" x="79" y="3.15" transform="translate(0,267.14)" style="font-family: arial, verdana, arial, arial; font-size: 9px; fill: rgb(42, 63, 95); fill-opacity: 1; white-space: pre;">3</text></g><g class="ytick"><text text-anchor="end" x="79" y="3.15" transform="translate(0,242.84)" style="font-family: arial, verdana, arial, arial; font-size: 9px; fill: rgb(42, 63, 95); fill-opacity: 1; white-space: pre;">4</text></g><g class="ytick"><text text-anchor="end" x="79" y="3.15" transform="translate(0,223.98000000000002)" style="font-family: arial, verdana, arial, arial; font-size: 9px; fill: rgb(42, 63, 95); fill-opacity: 1; white-space: pre;">5</text></g><g class="ytick"><text text-anchor="end" x="79" y="3.15" transform="translate(0,208.57999999999998)" style="font-family: arial, verdana, arial, arial; font-size: 9px; fill: rgb(42, 63, 95); fill-opacity: 1; white-space: pre;">6</text></g><g class="ytick"><text text-anchor="end" x="79" y="3.15" transform="translate(0,195.55)" style="font-family: arial, verdana, arial, arial; font-size: 9px; fill: rgb(42, 63, 95); fill-opacity: 1; white-space: pre;">7</text></g><g class="ytick"><text text-anchor="end" x="79" y="3.15" transform="translate(0,184.26999999999998)" style="font-family: arial, verdana, arial, arial; font-size: 9px; fill: rgb(42, 63, 95); fill-opacity: 1; white-space: pre;">8</text></g><g class="ytick"><text text-anchor="end" x="79" y="3.15" transform="translate(0,174.32)" style="font-family: arial, verdana, arial, arial; font-size: 9px; fill: rgb(42, 63, 95); fill-opacity: 1; white-space: pre;">9</text></g><g class="ytick"><text text-anchor="end" x="76" y="2.1999999999999993" transform="translate(0,165.41)" style="font-family: arial, verdana, arial, arial; font-size: 12px; fill: rgb(42, 63, 95); fill-opacity: 1; white-space: pre;">1</text></g><g class="ytick"><text text-anchor="end" x="79" y="3.15" transform="translate(0,106.85)" style="font-family: arial, verdana, arial, arial; font-size: 9px; fill: rgb(42, 63, 95); fill-opacity: 1; white-space: pre;">2</text></g></g><g class="overaxes-above"/></g></g><g class="polarlayer"/><g class="ternarylayer"/><g class="geolayer"/><g class="funnelarealayer"/><g class="pielayer"/><g class="sunburstlayer"/><g class="glimages"/><defs id="topdefs-a81ea9"><g class="clips"/></defs><g class="layer-above"><g class="imagelayer"/><g class="shapelayer"/></g><g class="infolayer"><g class="g-gtitle"/><g class="g-xtitle"/><g class="g-ytitle"/></g></svg>
